<svg width="50" height="50" viewBox="0 0 50 50" fill="none" xmlns="http://www.w3.org/2000/svg">
<path d="M25 4.1665C16.9375 4.1665 10.4167 10.6873 10.4167 18.7498C10.4167 29.6873 25 45.8332 25 45.8332C25 45.8332 39.5833 29.6873 39.5833 18.7498C39.5833 10.6873 33.0625 4.1665 25 4.1665ZM25 23.9582C23.6187 23.9582 22.2939 23.4094 21.3172 22.4327C20.3404 21.4559 19.7917 20.1312 19.7917 18.7498C19.7917 17.3685 20.3404 16.0437 21.3172 15.067C22.2939 14.0902 23.6187 13.5415 25 13.5415C26.3813 13.5415 27.7061 14.0902 28.6829 15.067C29.6596 16.0437 30.2083 17.3685 30.2083 18.7498C30.2083 20.1312 29.6596 21.4559 28.6829 22.4327C27.7061 23.4094 26.3813 23.9582 25 23.9582V23.9582Z" fill="#0000FF"/>
</svg>
