<svg width="41" height="41" viewBox="0 0 41 41" fill="none" xmlns="http://www.w3.org/2000/svg">
<path fill-rule="evenodd" clip-rule="evenodd" d="M12.8968 2.05727C14.8518 1.96727 15.4752 1.94727 20.4552 1.94727C25.4352 1.94727 26.0585 1.96893 28.0118 2.05727C29.9652 2.1456 31.2985 2.45727 32.4652 2.90893C33.6868 3.3706 34.7952 4.09227 35.7118 5.0256C36.6452 5.9406 37.3652 7.04727 37.8252 8.2706C38.2785 9.43727 38.5885 10.7706 38.6785 12.7206C38.7685 14.6789 38.7885 15.3023 38.7885 20.2806C38.7885 25.2606 38.7668 25.8839 38.6785 27.8389C38.5902 29.7889 38.2785 31.1223 37.8252 32.2889C37.3652 33.5124 36.644 34.6209 35.7118 35.5373C34.7952 36.4706 33.6868 37.1906 32.4652 37.6506C31.2985 38.1039 29.9652 38.4139 28.0152 38.5039C26.0585 38.5939 25.4352 38.6139 20.4552 38.6139C15.4752 38.6139 14.8518 38.5923 12.8968 38.5039C10.9468 38.4156 9.61349 38.1039 8.44683 37.6506C7.22336 37.1905 6.11486 36.4694 5.19849 35.5373C4.26579 34.6217 3.54402 33.5137 3.08349 32.2906C2.63183 31.1239 2.32183 29.7906 2.23183 27.8406C2.14183 25.8823 2.12183 25.2589 2.12183 20.2806C2.12183 15.3006 2.14349 14.6773 2.23183 12.7239C2.32016 10.7706 2.63183 9.43727 3.08349 8.2706C3.5447 7.0474 4.26702 5.93945 5.20016 5.02393C6.11523 4.09143 7.22261 3.36967 8.44516 2.90893C9.61183 2.45727 10.9452 2.14727 12.8952 2.05727H12.8968ZM27.8635 5.35727C25.9302 5.26893 25.3502 5.2506 20.4552 5.2506C15.5602 5.2506 14.9802 5.26893 13.0468 5.35727C11.2585 5.43893 10.2885 5.73727 9.64183 5.98893C8.78683 6.32227 8.17516 6.71727 7.53349 7.35893C6.92523 7.95069 6.45713 8.67107 6.16349 9.46727C5.91183 10.1139 5.61349 11.0839 5.53183 12.8723C5.44349 14.8056 5.42516 15.3856 5.42516 20.2806C5.42516 25.1756 5.44349 25.7556 5.53183 27.6889C5.61349 29.4773 5.91183 30.4473 6.16349 31.0939C6.45683 31.8889 6.92516 32.6106 7.53349 33.2023C8.12516 33.8106 8.84683 34.2789 9.64183 34.5723C10.2885 34.8239 11.2585 35.1223 13.0468 35.2039C14.9802 35.2923 15.5585 35.3106 20.4552 35.3106C25.3518 35.3106 25.9302 35.2923 27.8635 35.2039C29.6518 35.1223 30.6218 34.8239 31.2685 34.5723C32.1235 34.2389 32.7352 33.8439 33.3768 33.2023C33.9852 32.6106 34.4535 31.8889 34.7468 31.0939C34.9985 30.4473 35.2968 29.4773 35.3785 27.6889C35.4668 25.7556 35.4852 25.1756 35.4852 20.2806C35.4852 15.3856 35.4668 14.8056 35.3785 12.8723C35.2968 11.0839 34.9985 10.1139 34.7468 9.46727C34.4135 8.61227 34.0185 8.0006 33.3768 7.35893C32.785 6.75072 32.0647 6.28262 31.2685 5.98893C30.6218 5.73727 29.6518 5.43893 27.8635 5.35727ZM18.1135 25.9323C19.4213 26.4767 20.8775 26.5501 22.2334 26.1401C23.5893 25.7301 24.7608 24.8621 25.5478 23.6843C26.3349 22.5065 26.6886 21.0921 26.5486 19.6824C26.4086 18.2728 25.7835 16.9556 24.7802 15.9556C24.1406 15.3164 23.3672 14.827 22.5157 14.5225C21.6642 14.2181 20.7559 14.1062 19.856 14.195C18.9561 14.2837 18.0871 14.5709 17.3115 15.0358C16.5359 15.5007 15.8731 16.1318 15.3707 16.8837C14.8683 17.6355 14.5388 18.4894 14.406 19.3839C14.2732 20.2783 14.3404 21.1911 14.6027 22.0565C14.865 22.9218 15.316 23.7183 15.923 24.3885C16.5301 25.0587 17.2782 25.5859 18.1135 25.9323ZM13.7918 13.6173C14.6669 12.7422 15.7057 12.0481 16.849 11.5745C17.9923 11.101 19.2177 10.8572 20.4552 10.8572C21.6927 10.8572 22.918 11.101 24.0613 11.5745C25.2046 12.0481 26.2435 12.7422 27.1185 13.6173C27.9935 14.4923 28.6877 15.5311 29.1612 16.6744C29.6348 17.8177 29.8785 19.0431 29.8785 20.2806C29.8785 21.5181 29.6348 22.7435 29.1612 23.8868C28.6877 25.0301 27.9935 26.0689 27.1185 26.9439C25.3513 28.7112 22.9544 29.704 20.4552 29.704C17.9559 29.704 15.5591 28.7112 13.7918 26.9439C12.0246 25.1767 11.0318 22.7798 11.0318 20.2806C11.0318 17.7814 12.0246 15.3845 13.7918 13.6173ZM31.9685 12.2606C32.1853 12.056 32.3589 11.8101 32.479 11.5372C32.5991 11.2644 32.6632 10.9702 32.6675 10.6721C32.6719 10.3741 32.6164 10.0782 32.5043 9.80195C32.3922 9.52572 32.2259 9.27478 32.0151 9.064C31.8043 8.85321 31.5534 8.68686 31.2771 8.5748C31.0009 8.46273 30.705 8.40723 30.4069 8.41157C30.1089 8.41592 29.8147 8.48002 29.5419 8.60009C29.269 8.72016 29.023 8.89376 28.8185 9.1106C28.4207 9.53231 28.2029 10.0925 28.2113 10.6721C28.2198 11.2518 28.4538 11.8054 28.8638 12.2153C29.2737 12.6253 29.8273 12.8593 30.4069 12.8678C30.9866 12.8762 31.5468 12.6584 31.9685 12.2606Z" fill="white"/>
</svg>
