<svg width="51" height="51" viewBox="0 0 51 51" fill="none" xmlns="http://www.w3.org/2000/svg">
<path d="M45.4441 14.5883C45.7358 13.6196 45.4441 12.9092 44.065 12.9092H39.4962C38.3337 12.9092 37.8025 13.5238 37.5108 14.1988C37.5108 14.1988 35.1879 19.8633 31.8962 23.5363C30.8337 24.605 30.3483 24.9425 29.7691 24.9425C29.4795 24.9425 29.0587 24.605 29.0587 23.6363V14.5883C29.0587 13.4258 28.7233 12.9092 27.7545 12.9092H20.5754C19.8504 12.9092 19.4129 13.4467 19.4129 13.9592C19.4129 15.0592 21.0587 15.3133 21.2275 18.4133V25.1383C21.2275 26.6113 20.9629 26.88 20.3795 26.88C18.8316 26.88 15.065 21.1946 12.8295 14.6863C12.3941 13.4217 11.9545 12.9113 10.7879 12.9113H6.22121C4.91496 12.9113 4.65454 13.5258 4.65454 14.2008C4.65454 15.4133 6.20246 21.4133 11.865 29.3488C15.64 34.7675 20.9545 37.705 25.7962 37.705C28.6983 37.705 29.0566 37.0529 29.0566 35.9279V31.8321C29.0566 30.5279 29.3337 30.2654 30.2525 30.2654C30.9275 30.2654 32.09 30.6071 34.8004 33.2175C37.8962 36.3133 38.4087 37.7029 40.1483 37.7029H44.715C46.0191 37.7029 46.6712 37.0508 46.2962 35.7633C45.8858 34.4821 44.4066 32.6175 42.4441 30.4113C41.3775 29.1529 39.7837 27.7988 39.2983 27.1217C38.6212 26.2488 38.817 25.8633 39.2983 25.0883C39.3004 25.0904 44.865 17.2529 45.4441 14.5883Z" fill="white"/>
</svg>
