<svg width="40" height="41" viewBox="0 0 40 41" fill="none" xmlns="http://www.w3.org/2000/svg">
<g clip-path="url(#clip0_66_988)">
<path d="M20 40.2867C8.956 40.2867 0 31.2982 0 20.2141C0 9.13008 8.956 0.141602 20 0.141602C31.044 0.141602 40 9.13008 40 20.2141C40 31.2982 31.044 40.2867 20 40.2867Z" fill="url(#paint0_linear_66_988)"/>
<path d="M20 8.98162C23.644 8.98162 24.076 8.99366 25.516 9.06191C26.848 9.12212 27.572 9.34694 28.052 9.53562C28.688 9.78452 29.144 10.0816 29.62 10.5593C30.096 11.037 30.392 11.4947 30.64 12.133C30.828 12.6147 31.048 13.3414 31.112 14.6782C31.176 16.1234 31.192 16.557 31.192 20.2142C31.192 23.8714 31.18 24.305 31.112 25.7502C31.052 27.087 30.828 27.8137 30.64 28.2954C30.392 28.9337 30.096 29.3914 29.62 29.8691C29.144 30.3468 28.688 30.6439 28.052 30.8928C27.572 31.0815 26.848 31.3023 25.516 31.3665C24.076 31.4307 23.644 31.4468 20 31.4468C16.356 31.4468 15.924 31.4347 14.484 31.3665C13.152 31.3063 12.428 31.0815 11.948 30.8928C11.312 30.6439 10.856 30.3468 10.38 29.8691C9.90399 29.3914 9.60799 28.9337 9.35999 28.2954C9.17199 27.8137 8.95199 27.087 8.88799 25.7502C8.82399 24.305 8.80799 23.8714 8.80799 20.2142C8.80799 16.557 8.81999 16.1234 8.88799 14.6782C8.94799 13.3414 9.17199 12.6147 9.35999 12.133C9.60799 11.4947 9.90399 11.037 10.38 10.5593C10.856 10.0816 11.312 9.78452 11.948 9.53562C12.428 9.34694 13.152 9.12614 14.484 9.06191C15.924 8.99366 16.356 8.98162 20 8.98162ZM20 6.5127C16.292 6.5127 15.828 6.52875 14.372 6.597C12.92 6.66525 11.928 6.89407 11.056 7.23531C10.16 7.58055 9.39599 8.05025 8.63999 8.81301C7.87999 9.57576 7.41599 10.3385 7.06399 11.2418C6.72799 12.1129 6.49599 13.1085 6.42799 14.5698C6.35999 16.0311 6.34399 16.4968 6.34399 20.2182C6.34399 23.9397 6.35999 24.4053 6.42799 25.8666C6.49599 27.3239 6.72399 28.3195 7.06399 29.1947C7.41199 30.0899 7.87999 30.8567 8.63999 31.6154C9.39999 32.3782 10.16 32.8438 11.06 33.1971C11.928 33.5343 12.92 33.7672 14.376 33.8354C15.832 33.9037 16.296 33.9197 20.004 33.9197C23.712 33.9197 24.176 33.9037 25.632 33.8354C27.084 33.7672 28.076 33.5383 28.948 33.1971C29.84 32.8479 30.604 32.3782 31.36 31.6154C32.12 30.8526 32.584 30.0899 32.936 29.1866C33.272 28.3155 33.504 27.3199 33.572 25.8586C33.64 24.3973 33.656 23.9316 33.656 20.2102C33.656 16.4887 33.64 16.0231 33.572 14.5618C33.504 13.1045 33.276 12.1089 32.936 11.2338C32.588 10.3385 32.12 9.57175 31.36 8.81301C30.6 8.05025 29.84 7.58457 28.94 7.23129C28.072 6.89407 27.08 6.66123 25.624 6.59299C24.172 6.52875 23.708 6.5127 20 6.5127Z" fill="white"/>
<path d="M20 13.1768C16.128 13.1768 12.988 16.3281 12.988 20.2142C12.988 24.1002 16.128 27.2516 20 27.2516C23.872 27.2516 27.012 24.1002 27.012 20.2142C27.012 16.3281 23.872 13.1768 20 13.1768ZM20 24.7827C17.488 24.7827 15.448 22.7393 15.448 20.2142C15.448 17.6891 17.488 15.6457 20 15.6457C22.512 15.6457 24.552 17.6891 24.552 20.2142C24.552 22.7393 22.512 24.7827 20 24.7827Z" fill="white"/>
<path d="M27.2879 14.5458C28.1937 14.5458 28.9279 13.8089 28.9279 12.8999C28.9279 11.9908 28.1937 11.2539 27.2879 11.2539C26.3822 11.2539 25.6479 11.9908 25.6479 12.8999C25.6479 13.8089 26.3822 14.5458 27.2879 14.5458Z" fill="white"/>
</g>
<defs>
<linearGradient id="paint0_linear_66_988" x1="5.85786" y1="34.4076" x2="34.2445" y2="6.12346" gradientUnits="userSpaceOnUse">
<stop stop-color="#FFD521"/>
<stop offset="0.0551048" stop-color="#FFD020"/>
<stop offset="0.1241" stop-color="#FEC01E"/>
<stop offset="0.2004" stop-color="#FCA71B"/>
<stop offset="0.2821" stop-color="#FA8316"/>
<stop offset="0.3681" stop-color="#F85510"/>
<stop offset="0.4563" stop-color="#F51E09"/>
<stop offset="0.5" stop-color="#F30005"/>
<stop offset="0.5035" stop-color="#F20007"/>
<stop offset="0.5966" stop-color="#E1003B"/>
<stop offset="0.6879" stop-color="#D30067"/>
<stop offset="0.7757" stop-color="#C70088"/>
<stop offset="0.8589" stop-color="#BF00A0"/>
<stop offset="0.9357" stop-color="#BB00AF"/>
<stop offset="1" stop-color="#B900B4"/>
</linearGradient>
<clipPath id="clip0_66_988">
<rect width="40" height="40.1451" fill="white" transform="translate(0 0.141602)"/>
</clipPath>
</defs>
</svg>
