<svg width="50" height="50" viewBox="0 0 50 50" fill="none" xmlns="http://www.w3.org/2000/svg">
<g clip-path="url(#clip0_266_6414)">
<path d="M25 50C11.195 50 0 38.805 0 25C0 11.195 11.195 0 25 0C38.805 0 50 11.195 50 25C50 38.805 38.805 50 25 50Z" fill="#9B25D3"/>
<path d="M38.2727 13.2126C37.4101 12.4634 33.9162 10.0549 26.1354 10.0232C26.1354 10.0232 16.954 9.50222 12.4815 13.394C9.99375 15.7531 9.12244 19.2077 9.02241 23.4927C8.92237 27.7777 8.81074 35.8088 16.9743 37.9919H16.9816L16.9743 41.3173C16.9743 41.3173 16.9207 42.6645 17.8543 42.9354C18.9822 43.2708 19.6491 42.2452 20.7292 41.1427C21.3207 40.5365 22.1355 39.6484 22.7545 38.9707C26.3021 39.2822 29.8797 39.0234 33.3363 38.205L33.1188 38.2489C34.2468 37.9011 40.6286 37.1272 41.6608 29.0974C42.7394 20.8079 41.1476 15.5785 38.2727 13.2126V13.2126ZM39.218 28.4926C38.338 35.1943 33.1681 35.6205 32.2171 35.9092C30.141 36.4096 27.7576 36.6955 25.3032 36.6955C24.5986 36.6955 23.8998 36.6721 23.2083 36.6254L23.3011 36.6309C23.3011 36.6309 19.7666 40.6712 18.6662 41.7215C18.3067 42.0624 17.9109 42.0349 17.9181 41.3544C17.9181 40.9104 17.9457 35.8308 17.9457 35.8308C11.0347 34.0134 11.4348 27.1728 11.516 23.6C11.5972 20.0271 12.3047 17.0907 14.4112 15.1193C18.1979 11.8654 25.9933 12.3479 25.9933 12.3479C32.5795 12.374 35.7328 14.256 36.4663 14.887C38.8932 16.8597 40.1299 21.5777 39.218 28.4912V28.4926ZM29.7786 23.2851V23.3044C29.7755 23.4114 29.7293 23.5133 29.6493 23.5889C29.5693 23.6646 29.4618 23.7082 29.3489 23.7109C29.236 23.7135 29.1263 23.675 29.0425 23.6032C28.9588 23.5314 28.9072 23.4318 28.8986 23.325V23.3236C28.9281 23.0366 28.8916 22.7469 28.7916 22.4746C28.6916 22.2023 28.5304 21.9537 28.3192 21.7462C28.1081 21.5386 27.852 21.377 27.5685 21.2725C27.2851 21.1679 26.9811 21.1229 26.6776 21.1406H26.6834C26.5707 21.1323 26.4657 21.0833 26.39 21.0037C26.3144 20.9241 26.2738 20.82 26.2768 20.7129C26.2798 20.6058 26.3261 20.5038 26.406 20.4281C26.486 20.3524 26.5936 20.3088 26.7066 20.3061H26.7312H26.7298L26.8298 20.3048C27.2345 20.3046 27.635 20.3834 28.0063 20.5362C28.3776 20.6889 28.7118 20.9125 28.9882 21.1928C29.2646 21.4732 29.4772 21.8045 29.613 22.1661C29.7487 22.5277 29.8046 22.9118 29.7771 23.2948V23.2865L29.7786 23.2851ZM31.1573 24.0151C31.2255 21.2822 29.4249 19.1431 26.0063 18.9039C25.947 18.9022 25.8887 18.8891 25.8348 18.8654C25.781 18.8417 25.7327 18.808 25.693 18.7663C25.6532 18.7245 25.6227 18.6755 25.6034 18.6223C25.5841 18.5691 25.5763 18.5128 25.5805 18.4566C25.5847 18.4005 25.6008 18.3457 25.6278 18.2957C25.6549 18.2456 25.6924 18.2012 25.7379 18.1652C25.7835 18.1291 25.8363 18.1022 25.8932 18.086C25.95 18.0698 26.0097 18.0646 26.0687 18.0708H26.0672H26.0919C26.9031 18.0708 27.7059 18.228 28.4508 18.5329C29.1956 18.8377 29.8669 19.2837 30.4235 19.8434C30.98 20.4032 31.4099 21.0649 31.687 21.788C31.964 22.511 32.0822 23.2802 32.0344 24.0481L32.0359 24.033C32.0281 24.1395 31.9776 24.2392 31.8948 24.3116C31.8119 24.3839 31.703 24.4235 31.5904 24.422C31.4778 24.4206 31.37 24.3784 31.2892 24.304C31.2084 24.2296 31.1607 24.1287 31.1559 24.022V24.011L31.1573 24.0151ZM34.3468 24.8798V24.8826C34.3409 24.9891 34.2923 25.0895 34.2108 25.1632C34.1294 25.2368 34.0214 25.2781 33.9088 25.2787C33.7963 25.2792 33.6878 25.2389 33.6056 25.166C33.5234 25.0931 33.4738 24.9932 33.4668 24.8867C33.432 19.6325 29.7366 16.7717 25.2582 16.7415C25.2006 16.7415 25.1434 16.7307 25.0901 16.7098C25.0369 16.6888 24.9884 16.6582 24.9476 16.6195C24.9068 16.5808 24.8745 16.5349 24.8524 16.4843C24.8303 16.4338 24.819 16.3796 24.819 16.3249C24.819 16.2702 24.8303 16.2161 24.8524 16.1655C24.8745 16.115 24.9068 16.0691 24.9476 16.0304C24.9884 15.9917 25.0369 15.961 25.0901 15.9401C25.1434 15.9192 25.2006 15.9084 25.2582 15.9084C30.273 15.9414 34.3033 19.2229 34.3439 24.8784L34.3468 24.8798ZM33.5857 31.2008V31.2131C32.8521 32.438 31.4792 33.7907 30.0656 33.3591L30.0526 33.3398C27.5325 32.4604 25.1702 31.2183 23.0488 29.657L23.1083 29.6982C22.0527 28.9034 21.0951 27.9982 20.2537 26.9996L20.2261 26.9653C19.4643 26.0559 18.7844 25.0874 18.1936 24.0701L18.1356 23.9615C17.4366 22.8688 16.8571 21.7112 16.406 20.5068L16.3625 20.3721C15.9073 19.0318 17.3266 17.7299 18.6256 17.0343H18.6387C18.8942 16.8792 19.2011 16.8188 19.5006 16.8647C19.8002 16.9106 20.0714 17.0596 20.2624 17.2831L20.2638 17.2859C20.2638 17.2859 21.1061 18.2386 21.4671 18.7101C21.8064 19.1486 22.263 19.8511 22.4994 20.2429C22.6773 20.5106 22.7497 20.8293 22.7038 21.1428C22.6579 21.4562 22.4967 21.7442 22.2486 21.9558L22.2471 21.9572L21.4323 22.5758C21.3053 22.6921 21.2071 22.8337 21.1449 22.9904C21.0828 23.147 21.0581 23.3149 21.0728 23.4817V23.4776C21.4762 24.7524 22.2044 25.9135 23.193 26.8583C24.1815 27.8032 25.4002 28.5028 26.7414 28.8954L26.8022 28.9105C26.9773 28.9236 27.1533 28.8999 27.3177 28.8412C27.4821 28.7826 27.6308 28.6903 27.7533 28.5709L28.4057 27.7983C28.6298 27.562 28.935 27.4087 29.2671 27.3657C29.5991 27.3226 29.9366 27.3926 30.2193 27.5633L30.2135 27.5605C31.3922 28.197 32.4114 28.8967 33.3407 29.69L33.3247 29.6762C33.5604 29.8544 33.7173 30.1099 33.7646 30.3922C33.8118 30.6746 33.7459 30.9635 33.5799 31.2021L33.5828 31.198L33.5857 31.2008Z" fill="white"/>
</g>
<defs>
<clipPath id="clip0_266_6414">
<rect width="50" height="50" fill="white"/>
</clipPath>
</defs>
</svg>
