<svg width="333" height="51" viewBox="0 0 333 51" fill="none" xmlns="http://www.w3.org/2000/svg">
<path d="M22.4175 25.1653L16.2984 35.3853C15.9462 35.8995 15.7262 36.2369 15.6381 36.3976C15.4619 36.719 15.374 37.0404 15.374 37.3619C15.374 37.7153 15.5207 38.0206 15.8141 38.2777C16.1076 38.5349 16.4158 38.6634 16.7387 38.6634L16.5185 39.7722H4.23645C3.26798 39.7722 2.78369 39.258 2.78369 38.2295C2.78369 38.0688 2.81309 37.7956 2.87177 37.4099L8.90274 9.16034C8.96142 8.83893 8.82943 8.50951 8.50653 8.17207C8.18374 7.83462 7.86084 7.66591 7.53806 7.66591L7.8462 6.55713H20.0843C21.0234 6.55713 21.493 7.07144 21.493 8.09178C21.493 8.2203 21.493 8.47745 21.493 8.86312L18.7637 21.2604L24.5305 11.7475C24.7946 11.3297 25.0441 10.936 25.2788 10.5503C25.5136 10.1647 25.6897 9.6987 25.8071 9.15233C25.8658 8.83092 25.7485 8.50951 25.455 8.17207C25.1615 7.83462 24.8533 7.66591 24.5305 7.66591L24.7506 6.55713H36.9886C37.4875 6.55713 37.847 6.69378 38.0672 6.96697C38.2873 7.24016 38.3973 7.63384 38.3973 8.14802L38.3094 8.87113L32.3223 37.169C32.2636 37.4904 32.3957 37.8198 32.7185 38.1572C33.0414 38.4947 33.3642 38.6634 33.687 38.6634L33.3788 39.7722H21.1408C20.2017 39.7722 19.7321 39.258 19.7321 38.2295C19.7321 38.101 19.7321 37.8438 19.7321 37.4582L22.4175 25.1653V25.1653Z" fill="white"/>
<path d="M51.9563 37.4586L53.7172 29.1188H51.34L49.7993 36.3981L49.7552 37.1694C49.7552 37.5229 49.8872 37.8605 50.1515 38.1818C50.4156 38.5032 50.6943 38.6639 50.9878 38.6639L50.7237 39.7727H39.7183C39.3074 39.7727 38.9699 39.6441 38.7058 39.387C38.4417 39.1298 38.3096 38.8246 38.3096 38.4711L38.4417 37.4506L42.7118 17.3159C42.7704 17.1232 42.7998 16.9303 42.7998 16.7295C42.7998 16.5366 42.7998 16.392 42.7998 16.2956C42.7998 15.942 42.6677 15.6045 42.4036 15.2833C42.1395 14.9619 41.8606 14.8012 41.5671 14.8012L41.8313 13.6924H52.8368C53.2476 13.6924 53.5851 13.8209 53.8493 14.078C54.1134 14.3351 54.2455 14.6485 54.2455 15.0019L54.1134 16.0144L52.6606 22.8518H55.0819L56.2265 17.324C56.2852 17.1312 56.3144 16.9383 56.3144 16.7375C56.3144 16.5446 56.3144 16.4001 56.3144 16.3036C56.3144 15.9501 56.1824 15.6126 55.9183 15.2833C55.6541 14.9619 55.3754 14.8012 55.0819 14.8012L55.346 13.6924H66.3514C66.7624 13.6924 67.0998 13.8209 67.3639 14.078C67.6281 14.3351 67.7601 14.6405 67.7601 14.9939L67.6281 16.0144L63.314 36.3901L63.27 37.1694C63.27 37.5229 63.4019 37.8605 63.6661 38.1818C63.9303 38.5032 64.209 38.6639 64.5025 38.6639L64.2384 39.7727H53.233C52.822 39.7727 52.4846 39.6441 52.2205 39.387C51.9563 39.1298 51.8243 38.8246 51.8243 38.4711L51.9563 37.4586V37.4586Z" fill="white"/>
<path d="M71.2379 13.6924H87.834C89.7123 13.6924 91.1723 14.1905 92.2142 15.1948C93.256 16.1911 93.777 17.4526 93.777 18.9711C93.777 19.196 93.7549 19.4452 93.7109 19.7182C93.6669 19.9914 93.6303 20.2084 93.6009 20.3691C93.2487 22.0162 92.7424 23.2214 92.0821 23.9766C91.4218 24.7399 90.6514 25.1979 89.771 25.3586C90.6807 25.8407 91.3264 26.4271 91.708 27.1182C92.0894 27.8091 92.2802 28.6528 92.2802 29.6491C92.2802 30.1311 92.2435 30.6132 92.1702 31.0953C92.0968 31.5773 91.9721 32.2684 91.7959 33.1682C91.3264 35.45 90.446 37.1212 89.1546 38.1818C87.8634 39.2423 86.0879 39.7727 83.828 39.7727H69.1248C68.7139 39.7727 68.3764 39.6441 68.1123 39.387C67.8482 39.1298 67.7161 38.8246 67.7161 38.4711L67.8482 37.4506L72.1183 17.3159C72.1769 17.1232 72.2063 16.9303 72.2063 16.7295C72.2063 16.5366 72.2063 16.392 72.2063 16.2956C72.2063 15.942 72.0742 15.6045 71.8101 15.2833C71.546 14.9619 71.2671 14.8012 70.9736 14.8012L71.2379 13.6924V13.6924ZM84.2683 21.8715L84.5764 20.5057C84.7232 19.8227 84.5031 19.4772 83.9161 19.4772H82.5074L81.759 22.9482H83.2558C83.7547 22.9482 84.0921 22.5866 84.2683 21.8715ZM82.2873 31.2399L82.6835 29.408C82.8302 28.6367 82.6247 28.251 82.0671 28.251H80.6145L79.778 32.3004H81.1867C81.5389 32.3004 81.7957 32.2121 81.9571 32.0354C82.1185 31.8585 82.2286 31.5935 82.2873 31.2399Z" fill="white"/>
<path d="M107.996 32.3004H111.562C112.736 32.3004 113.587 32.188 114.115 31.963C114.643 31.738 115.025 31.3042 115.26 30.6615H116.36L115.26 35.5785C114.907 37.2177 114.276 38.3264 113.367 38.9049C112.457 39.4834 111.092 39.7727 109.273 39.7727H99.984C97.871 39.7727 96.3228 39.2505 95.3397 38.2059C94.3566 37.1614 93.865 35.6107 93.865 33.5539C93.865 32.2041 94.0998 30.4686 94.5694 28.3475L95.6698 23.5267C96.4036 20.3611 97.7023 17.9346 99.5657 16.2394C101.429 14.544 103.608 13.6924 106.103 13.6924H110.945C113.733 13.6924 115.773 14.1905 117.064 15.1948C118.356 16.1911 119.001 17.6776 119.001 19.638C119.001 20.4173 118.884 21.3493 118.649 22.4501C118.092 25.0934 117.556 26.7325 117.042 27.3833C116.529 28.026 115.436 28.3475 113.763 28.3475H105.707L105.311 30.1311L105.179 31.1917C105.179 31.5773 105.399 31.8585 105.839 32.0354C106.279 32.2121 106.998 32.3004 107.996 32.3004V32.3004ZM106.719 23.5267H108.216C108.774 23.5267 109.14 23.133 109.317 22.3537L109.537 21.4216C109.595 21.2289 109.625 21.0039 109.625 20.7387C109.625 20.2164 109.287 19.9594 108.612 19.9594C108.113 19.9594 107.776 20.0799 107.6 20.3289C107.424 20.57 107.277 20.9717 107.16 21.5261L106.719 23.5267V23.5267Z" fill="white"/>
<path d="M131.988 32.3004H136.346C136.845 32.3004 137.3 32.1317 137.71 31.7943C138.121 31.4568 138.385 31.0792 138.503 30.6615H139.471L138.503 35.2411C138.092 37.1052 137.534 38.3264 136.83 38.9049C136.126 39.4834 134.996 39.7727 133.44 39.7727H125.472C123.271 39.7727 121.665 39.2343 120.652 38.1577C119.64 37.073 119.133 35.426 119.133 33.2004C119.133 31.722 119.324 30.0991 119.706 28.3234L120.718 23.4946C121.364 20.3048 122.67 17.8463 124.636 16.1107C126.456 14.4958 128.627 13.6924 131.151 13.6924H141.364L140.308 18.8024C140.161 19.413 139.779 19.8789 139.163 20.2004C138.547 20.5218 137.74 20.6825 136.742 20.6825H134.805C134.071 20.6825 133.44 20.9074 132.912 21.3574C132.384 21.8153 132.032 22.4902 131.856 23.3902L130.711 28.9099C130.652 29.2313 130.616 29.5527 130.601 29.8579C130.586 30.1633 130.579 30.4445 130.579 30.7015C130.579 31.1516 130.718 31.5372 130.997 31.8425C131.276 32.1479 131.606 32.3004 131.988 32.3004V32.3004Z" fill="white"/>
<path d="M144.226 13.6922H152.898C153.661 13.6922 154.241 13.9412 154.637 14.4473C155.033 14.9536 155.231 15.6124 155.231 16.4319C155.231 16.7533 155.216 17.0025 155.187 17.163H155.803C156.508 15.974 157.212 15.0902 157.916 14.5117C158.768 13.8047 159.78 13.4512 160.954 13.4512H164.168C166.809 13.4512 168.129 14.4635 168.129 16.4881C168.129 16.7774 168.115 17.0025 168.085 17.163H168.614C169.406 15.8775 170.125 14.9777 170.771 14.4635C171.593 13.7886 172.605 13.4512 173.808 13.4512H176.185C178.064 13.4512 179.384 13.7002 180.148 14.1983C180.911 14.6965 181.292 15.6205 181.292 16.9703C181.292 17.7737 181.16 18.7539 180.896 19.9109L177.374 36.3979L177.33 37.1692C177.33 37.5227 177.462 37.8603 177.726 38.1815C177.99 38.503 178.269 38.6637 178.563 38.6637L178.299 39.7724H168.085C167.675 39.7724 167.337 39.6439 167.073 39.3868C166.809 39.1296 166.677 38.8244 166.677 38.4709L166.809 37.4584L170.022 22.4177C170.081 22.2249 170.11 21.9517 170.11 21.5981C170.11 20.8268 169.729 20.4413 168.966 20.4413C168.614 20.4413 168.291 20.5858 167.997 20.875C167.704 21.1644 167.499 21.6143 167.381 22.2249L164.388 36.3979L164.344 37.1692C164.344 37.5227 164.476 37.8603 164.74 38.1815C165.004 38.503 165.283 38.6637 165.576 38.6637L165.312 39.7724H155.099C154.688 39.7724 154.351 39.6439 154.087 39.3868C153.822 39.1296 153.69 38.8244 153.69 38.4709L153.822 37.4584L157.036 22.3695C157.065 22.2088 157.087 22.04 157.102 21.8633C157.117 21.6866 157.124 21.5661 157.124 21.5018C157.124 20.7947 156.757 20.4413 156.023 20.4413C155.642 20.4413 155.297 20.5698 154.989 20.8268C154.681 21.084 154.468 21.5339 154.351 22.1767L151.357 36.3979L151.313 37.1692C151.313 37.5227 151.445 37.8603 151.709 38.1815C151.973 38.503 152.252 38.6637 152.546 38.6637L152.282 39.7724H142.069C141.658 39.7724 141.32 39.6439 141.056 39.3868C140.792 39.1296 140.66 38.8244 140.66 38.4709L140.792 37.4504L145.194 16.5846L145.238 15.8615C145.238 15.5401 145.106 15.2831 144.842 15.0902C144.578 14.8974 144.299 14.8009 144.006 14.8009L144.226 13.6922V13.6922Z" fill="white"/>
<path fill-rule="evenodd" clip-rule="evenodd" d="M22.4177 25.1655L16.2987 35.3855C15.9465 35.8997 15.7264 36.2371 15.6383 36.3978C15.4622 36.7192 15.3742 37.0406 15.3742 37.362C15.3742 37.7155 15.521 38.0208 15.8144 38.2779C16.1079 38.5351 16.416 38.6636 16.7389 38.6636L16.5187 39.7724H4.2367C3.26824 39.7724 2.78394 39.2582 2.78394 38.2297C2.78394 38.069 2.81334 37.7958 2.87202 37.4101L8.903 9.16054C8.96167 8.83913 8.82968 8.5097 8.50678 8.17226C8.184 7.83482 7.8611 7.6661 7.53831 7.6661L7.84646 6.55732H20.0846C21.0236 6.55732 21.4933 7.07163 21.4933 8.09197C21.4933 8.22049 21.4933 8.47764 21.4933 8.86331L18.7639 21.2606L24.5308 11.7477C24.7949 11.3299 25.0444 10.9362 25.2791 10.5505C25.5139 10.1648 25.6899 9.69889 25.8074 9.15252C25.8661 8.83111 25.7487 8.5097 25.4552 8.17226C25.1617 7.83482 24.8536 7.6661 24.5308 7.6661L24.7509 6.55732H36.9888C37.4878 6.55732 37.8473 6.69398 38.0675 6.96716C38.2875 7.24035 38.3976 7.63403 38.3976 8.14821L38.3096 8.87132L32.3226 37.1691C32.2639 37.4906 32.396 37.82 32.7188 38.1574C33.0417 38.4949 33.3645 38.6636 33.6872 38.6636L33.3791 39.7724H21.1411C20.2019 39.7724 19.7324 39.2582 19.7324 38.2297C19.7324 38.1012 19.7324 37.844 19.7324 37.4584L22.4177 25.1655V25.1655ZM18.4199 40.9183C18.0417 41.6713 17.3117 42.1495 16.5187 42.1486V42.1505H4.2367C3.17145 42.1505 2.30511 41.7959 1.63724 41.0866C0.954027 40.361 0.612305 39.4086 0.612305 38.2297C0.612305 38.0686 0.625317 37.8671 0.651344 37.6256C0.654365 37.5974 0.657969 37.5697 0.661919 37.542C0.678883 37.3992 0.703051 37.2251 0.734307 37.02C0.741976 36.97 0.751037 36.9206 0.761378 36.8718L0.759752 36.8714L6.54336 9.78046C5.84446 9.38525 5.36667 8.58682 5.36667 7.6661C5.36667 7.34851 5.42361 7.04555 5.52679 6.76867L5.7766 5.86984C6.05988 4.84695 6.91831 4.18798 7.84646 4.18823V4.1792H20.0846C21.1454 4.1792 22.0069 4.54055 22.6675 5.2601C22.7243 5.32194 22.7786 5.38544 22.8305 5.45059C23.2028 4.67493 23.9442 4.18021 24.7509 4.1811V4.1792H36.9888C37.4633 4.1792 37.9127 4.25974 38.3368 4.42096C38.8786 4.62683 39.329 4.95231 39.6877 5.39727C40.2752 6.12674 40.5692 7.04376 40.5692 8.14821C40.5692 8.32317 40.5518 8.49354 40.519 8.65781L40.4558 9.17784C40.4469 9.2533 40.4345 9.32748 40.4194 9.40013L40.4219 9.40076L34.6785 36.5471C35.3793 36.9415 35.8589 37.7412 35.8589 38.6636C35.8589 38.9812 35.8019 39.2841 35.6988 39.561L35.4489 40.4598C35.1657 41.4827 34.3072 42.1417 33.3791 42.1415V42.1505H21.1411C20.0798 42.1505 19.2172 41.7881 18.5535 41.0633L18.5492 41.0681C18.5046 41.0192 18.4615 40.9692 18.4199 40.9183V40.9183Z" fill="white"/>
<path fill-rule="evenodd" clip-rule="evenodd" d="M51.9563 37.4589L53.7172 29.119H51.34L49.7993 36.3983L49.7553 37.1696C49.7553 37.5231 49.8872 37.8607 50.1515 38.182C50.4156 38.5034 50.6943 38.6641 50.9878 38.6641L50.7237 39.7729H39.7183C39.3074 39.7729 38.9699 39.6443 38.7058 39.3872C38.4417 39.13 38.3096 38.8248 38.3096 38.4713L38.4417 37.4508L42.7118 17.3161C42.7704 17.1234 42.7998 16.9305 42.7998 16.7297C42.7998 16.5368 42.7998 16.3923 42.7998 16.2958C42.7998 15.9422 42.6677 15.6048 42.4036 15.2835C42.1395 14.9621 41.8607 14.8014 41.5672 14.8014L41.8313 13.6926H52.8368C53.2477 13.6926 53.5851 13.8211 53.8493 14.0782C54.1134 14.3353 54.2455 14.6487 54.2455 15.0021L54.1134 16.0146L52.6606 22.852H55.0819L56.2265 17.3242C56.2852 17.1314 56.3144 16.9385 56.3144 16.7377C56.3144 16.5448 56.3144 16.4003 56.3144 16.3038C56.3144 15.9503 56.1824 15.6128 55.9183 15.2835C55.6541 14.9621 55.3754 14.8014 55.0819 14.8014L55.346 13.6926H66.3514C66.7624 13.6926 67.0998 13.8211 67.3639 14.0782C67.6281 14.3353 67.7601 14.6407 67.7601 14.9941L67.6281 16.0146L63.314 36.3903L63.27 37.1696C63.27 37.5231 63.402 37.8607 63.6661 38.182C63.9303 38.5034 64.209 38.6641 64.5025 38.6641L64.2384 39.7729H53.233C52.822 39.7729 52.4846 39.6443 52.2205 39.3872C51.9563 39.13 51.8243 38.8248 51.8243 38.4713L51.9563 37.4589V37.4589ZM51.7804 41.8414C51.4624 42.0363 51.0994 42.144 50.7237 42.1437V42.151H39.7183C39.2816 42.151 38.8566 42.0722 38.4444 41.9152C37.9995 41.7457 37.6055 41.4942 37.2637 41.1614C36.9149 40.8218 36.6434 40.427 36.4491 39.978C36.2416 39.4987 36.1379 38.9963 36.1379 38.4713C36.1379 38.3006 36.1546 38.1341 36.1857 37.9735L36.2955 37.1257C36.3042 37.0565 36.3158 36.9884 36.3298 36.9215L36.3294 36.9214L40.5722 16.9156C39.8733 16.5204 39.3955 15.7221 39.3955 14.8014C39.3955 14.5244 39.4389 14.2586 39.5184 14.0113L39.736 13.098C39.9887 12.0297 40.868 11.3211 41.8313 11.3217V11.3145H52.8368C53.2736 11.3145 53.6984 11.393 54.1106 11.5502C54.1712 11.5733 54.2308 11.5978 54.2894 11.6239C54.6073 11.4291 54.9703 11.3215 55.346 11.3217V11.3145H66.3514C66.788 11.3145 67.2131 11.393 67.6253 11.5502C68.07 11.7196 68.4638 11.9708 68.806 12.304C69.1545 12.6431 69.4262 13.0379 69.6206 13.4873C69.8281 13.9665 69.9318 14.4691 69.9318 14.9941C69.9318 15.1648 69.9153 15.3312 69.884 15.4916L69.7743 16.3397C69.7656 16.4089 69.754 16.477 69.74 16.5439L69.7404 16.544L65.5038 36.5534C66.1992 36.9499 66.6742 37.7462 66.6742 38.6641C66.6742 38.9411 66.6308 39.2069 66.5513 39.4541L66.3337 40.3675C66.081 41.4358 65.2017 42.1444 64.2384 42.1437V42.151H53.233C52.7961 42.151 52.3713 42.0722 51.9591 41.9152C51.8985 41.8922 51.8389 41.8676 51.7804 41.8414Z" fill="white"/>
<path fill-rule="evenodd" clip-rule="evenodd" d="M71.2379 11.3145H87.834C88.9857 11.3145 90.0353 11.4762 90.9825 11.8005C92.0097 12.1523 92.8985 12.6889 93.6478 13.4114C93.692 13.454 93.7342 13.4982 93.7745 13.5437C94.4678 14.2388 94.9974 15.0286 95.3625 15.9111C95.7532 16.8551 95.9487 17.876 95.9487 18.9713C95.9487 19.1048 95.9375 19.2973 95.9152 19.5496C95.8937 19.7926 95.8714 19.9862 95.8486 20.1272C95.7992 20.4344 95.8696 19.9816 95.7796 20.5133C95.7737 20.5488 95.7542 20.6558 95.7216 20.8337C95.7172 20.8581 95.7122 20.8823 95.7071 20.9065L95.7132 20.908C95.5044 21.8847 95.2413 22.7503 94.9246 23.5031C94.5738 24.3361 94.1491 25.0397 93.6512 25.6115L93.6514 25.6117C93.6022 25.6687 93.5523 25.7246 93.5019 25.7794C93.5236 25.8167 93.5449 25.8544 93.5658 25.8922C93.8658 26.4354 94.091 27.0391 94.241 27.7028C94.3816 28.3246 94.4519 28.9736 94.4519 29.6493C94.4519 29.9461 94.4398 30.2522 94.4159 30.5673C94.3947 30.8453 94.3588 31.1515 94.3079 31.4857C94.2594 31.804 94.2067 32.1207 94.1505 32.4322C94.0976 32.7252 94.0198 33.1342 93.9167 33.6607C93.9065 33.7134 93.8946 33.7653 93.8814 33.8165C93.6004 35.1331 93.1925 36.2989 92.6582 37.3129C92.0687 38.4322 91.3332 39.3537 90.4525 40.0771C89.5873 40.7876 88.5773 41.3156 87.4229 41.6603C86.328 41.9874 85.1295 42.151 83.828 42.151H69.1248C68.6881 42.151 68.2631 42.0722 67.8509 41.9152C67.406 41.7457 67.0119 41.4942 66.6702 41.1614C66.3214 40.8218 66.0499 40.427 65.8556 39.978C65.6481 39.4987 65.5444 38.9963 65.5444 38.4713C65.5444 38.3006 65.5611 38.1341 65.5922 37.9735L65.702 37.1257C65.7107 37.0565 65.7223 36.9884 65.7363 36.9215L65.7359 36.9214L69.9787 16.9156C69.2798 16.5204 68.802 15.7221 68.802 14.8014C68.802 14.5242 68.8455 14.2583 68.9249 14.0111L69.1426 13.098C69.3953 12.0297 70.2746 11.3211 71.2379 11.3217V11.3145V11.3145ZM71.2379 13.6926H87.834C89.7123 13.6926 91.1724 14.1907 92.2143 15.195C93.256 16.1913 93.777 17.4528 93.777 18.9713C93.777 19.1962 93.755 19.4454 93.7109 19.7185C93.6669 19.9916 93.6303 20.2086 93.6009 20.3693C93.2487 22.0164 92.7425 23.2216 92.0821 23.9768C91.4218 24.7401 90.6515 25.1981 89.7711 25.3588C90.6807 25.8409 91.3264 26.4273 91.708 27.1184C92.0895 27.8093 92.2802 28.653 92.2802 29.6493C92.2802 30.1313 92.2435 30.6134 92.1702 31.0955C92.0968 31.5775 91.9721 32.2686 91.796 33.1684C91.3264 35.4502 90.446 37.1214 89.1547 38.182C87.8634 39.2425 86.0879 39.7729 83.828 39.7729H69.1248C68.7139 39.7729 68.3764 39.6443 68.1123 39.3872C67.8482 39.13 67.7161 38.8248 67.7161 38.4713L67.8482 37.4508L72.1183 17.3161C72.1769 17.1234 72.2063 16.9305 72.2063 16.7297C72.2063 16.5368 72.2063 16.3923 72.2063 16.2958C72.2063 15.9422 72.0742 15.6048 71.8101 15.2835C71.546 14.9621 71.2672 14.8014 70.9736 14.8014L71.2379 13.6926V13.6926ZM84.2683 21.8717L84.5764 20.5059C84.7232 19.8229 84.5031 19.4775 83.9161 19.4775H82.5074L81.759 22.9485H83.2558C83.7547 22.9485 84.0921 22.5868 84.2683 21.8717ZM82.2873 31.2401L82.6836 29.4082C82.8302 28.6369 82.6247 28.2512 82.0671 28.2512H80.6145L79.778 32.3006H81.1868C81.5389 32.3006 81.7957 32.2123 81.9571 32.0356C82.1185 31.8587 82.2286 31.5937 82.2873 31.2401Z" fill="white"/>
<path fill-rule="evenodd" clip-rule="evenodd" d="M107.996 32.3006H111.562C112.736 32.3006 113.587 32.1882 114.115 31.9632C114.643 31.7382 115.025 31.3044 115.26 30.6617H116.36L115.26 35.5787C114.907 37.2179 114.276 38.3266 113.367 38.9051C112.457 39.4836 111.092 39.7729 109.273 39.7729H99.984C97.871 39.7729 96.3228 39.2507 95.3397 38.2061C94.3566 37.1616 93.865 35.6109 93.865 33.5541C93.865 32.2043 94.0998 30.4688 94.5694 28.3477L95.6698 23.5269C96.4036 20.3613 97.7023 17.9348 99.5658 16.2396C101.429 14.5442 103.608 13.6926 106.103 13.6926H110.945C113.733 13.6926 115.773 14.1907 117.064 15.195C118.356 16.1913 119.001 17.6778 119.001 19.6382C119.001 20.4175 118.884 21.3495 118.649 22.4503C118.092 25.0936 117.556 26.7327 117.042 27.3836C116.529 28.0262 115.436 28.3477 113.763 28.3477H105.707L105.311 30.1313L105.179 31.1919C105.179 31.5775 105.399 31.8587 105.839 32.0356C106.279 32.2123 106.998 32.3006 107.996 32.3006V32.3006ZM106.719 23.5269H108.216C108.774 23.5269 109.14 23.1332 109.317 22.3539L109.537 21.4218C109.595 21.2291 109.625 21.0041 109.625 20.7389C109.625 20.2166 109.287 19.9596 108.612 19.9596C108.113 19.9596 107.776 20.0801 107.6 20.3291C107.424 20.5702 107.277 20.9719 107.16 21.5263L106.719 23.5269V23.5269ZM118.216 29.4258C118.416 29.7859 118.532 30.2091 118.532 30.6617C118.532 30.9271 118.492 31.1823 118.419 31.4206L117.368 36.1165L117.372 36.1175C117.141 37.1923 116.804 38.118 116.363 38.8938C115.858 39.7811 115.221 40.4694 114.452 40.9581C113.786 41.3819 112.991 41.692 112.068 41.8876C111.24 42.0632 110.308 42.151 109.273 42.151H99.984C98.7237 42.151 97.5962 41.9832 96.6019 41.6479C95.4956 41.2748 94.5714 40.6938 93.8298 39.9061C93.0972 39.1275 92.5502 38.1687 92.1893 37.0308C91.8588 35.988 91.6934 34.8288 91.6934 33.5541C91.6934 32.7756 91.7606 31.8894 91.8949 30.8965C92.0173 29.9911 92.2076 28.9554 92.4656 27.7903C92.4669 27.7845 92.4684 27.7788 92.4696 27.7729L92.4656 27.7718L93.566 22.951C93.9815 21.1583 94.569 19.5527 95.3279 18.1334C96.1039 16.6822 97.0559 15.444 98.1831 14.4187C99.32 13.3845 100.551 12.6082 101.877 12.0915C103.204 11.5739 104.613 11.3145 106.103 11.3145H110.945C112.473 11.3145 113.836 11.4608 115.033 11.7541C116.339 12.0742 117.432 12.5744 118.31 13.2553L118.311 13.2535C119.27 13.9929 119.991 14.9201 120.476 16.0317C120.941 17.0974 121.173 18.3007 121.173 19.6382C121.173 20.1031 121.135 20.6364 121.06 21.2395C120.988 21.8109 120.888 22.3936 120.761 22.989C120.755 23.0197 120.748 23.05 120.74 23.0801C120.445 24.4695 120.156 25.5957 119.875 26.4597C119.519 27.5519 119.121 28.3764 118.68 28.9349C118.656 28.9643 118.633 28.9928 118.609 29.0205C118.487 29.1649 118.356 29.2999 118.216 29.4258V29.4258Z" fill="white"/>
<path fill-rule="evenodd" clip-rule="evenodd" d="M132.767 29.9225H136.346C136.371 29.9225 136.394 29.9148 136.413 29.8994C136.435 29.8808 136.454 29.864 136.468 29.849C136.785 28.8956 137.612 28.2895 138.503 28.2898V28.2835H139.471C140.671 28.2835 141.643 29.3483 141.643 30.6617C141.643 30.9038 141.61 31.1374 141.548 31.3575L140.615 35.7708C140.605 35.8183 140.594 35.8652 140.581 35.9115C140.049 38.2649 139.231 39.8946 138.128 40.8002C137.526 41.2944 136.799 41.6508 135.946 41.869C135.212 42.057 134.377 42.151 133.44 42.151H125.472C124.175 42.151 123.014 41.9791 121.989 41.6358C120.846 41.2527 119.897 40.6598 119.142 39.8578C119.139 39.8542 119.135 39.8503 119.132 39.8467C118.382 39.0424 117.824 38.0473 117.46 36.8596C117.128 35.776 116.962 34.5569 116.962 33.2006C116.962 32.4079 117.018 31.5334 117.13 30.5763C117.24 29.6409 117.394 28.7107 117.593 27.7849C117.599 27.756 117.606 27.7276 117.613 27.6992L118.606 22.9654C118.615 22.9224 118.625 22.8799 118.636 22.838C119.009 21.0537 119.566 19.4642 120.307 18.0685C121.095 16.5838 122.086 15.3153 123.279 14.2622C123.297 14.246 123.316 14.2302 123.335 14.2148C124.434 13.2522 125.634 12.5302 126.934 12.048C128.254 11.5586 129.66 11.3145 131.151 11.3145H141.364C142.564 11.3145 143.536 12.3792 143.536 13.6926C143.536 13.9406 143.501 14.1795 143.437 14.4042L142.42 19.3227C142.414 19.3507 142.408 19.3785 142.401 19.4059L142.403 19.4065C142.243 20.0745 141.949 20.6692 141.523 21.1892C141.13 21.6698 140.654 22.0557 140.096 22.3465C139.183 22.8226 138.065 23.0608 136.742 23.0608H134.805C134.567 23.0608 134.379 23.1187 134.244 23.2341C134.231 23.2449 134.218 23.2556 134.205 23.266C134.182 23.2963 134.158 23.3339 134.135 23.3786C134.071 23.5019 134.018 23.6699 133.976 23.8827C133.967 23.9333 133.955 23.9833 133.943 24.0324L132.835 29.3734L132.84 29.3745C132.807 29.5577 132.789 29.6603 132.786 29.6841C132.779 29.7483 132.772 29.8282 132.767 29.9225V29.9225ZM131.988 32.3006H136.346C136.845 32.3006 137.3 32.1319 137.71 31.7945C138.121 31.457 138.385 31.0794 138.503 30.6617H139.471L138.503 35.2413C138.092 37.1054 137.534 38.3266 136.83 38.9051C136.126 39.4836 134.996 39.7729 133.44 39.7729H125.472C123.271 39.7729 121.665 39.2345 120.652 38.1579C119.64 37.0732 119.133 35.4262 119.133 33.2006C119.133 31.7222 119.324 30.0993 119.706 28.3236L120.718 23.4948C121.364 20.305 122.67 17.8465 124.636 16.1109C126.456 14.496 128.627 13.6926 131.151 13.6926H141.364L140.308 18.8026C140.161 19.4132 139.779 19.8792 139.163 20.2006C138.547 20.522 137.74 20.6827 136.742 20.6827H134.805C134.071 20.6827 133.44 20.9076 132.912 21.3576C132.384 21.8155 132.032 22.4904 131.856 23.3904L130.711 28.9101C130.652 29.2315 130.616 29.5529 130.601 29.8581C130.586 30.1635 130.579 30.4447 130.579 30.7017C130.579 31.1518 130.718 31.5375 130.997 31.8427C131.276 32.1481 131.606 32.3006 131.988 32.3006V32.3006Z" fill="white"/>
<path fill-rule="evenodd" clip-rule="evenodd" d="M144.226 11.3137H152.898C153.554 11.3137 154.155 11.4314 154.703 11.6687C155.319 11.9357 155.846 12.3473 156.283 12.905C156.283 12.9058 156.284 12.9065 156.285 12.9073C156.396 12.8053 156.507 12.7082 156.619 12.6163C156.642 12.5973 156.665 12.5792 156.689 12.5615C157.292 12.0748 157.949 11.7072 158.661 11.4587C159.398 11.2014 160.162 11.0728 160.954 11.0728H164.168C166.495 11.0728 168.16 11.6578 169.163 12.8275C169.275 12.7247 169.387 12.6289 169.499 12.5402C169.539 12.5079 169.581 12.4774 169.623 12.4486C170.805 11.5315 172.201 11.0728 173.809 11.0728H176.186C177.237 11.0728 178.158 11.1474 178.95 11.2967C179.87 11.47 180.639 11.7591 181.259 12.1636C182.031 12.6675 182.606 13.3763 182.983 14.2893C183.303 15.0661 183.464 15.9599 183.464 16.97C183.464 17.4749 183.422 18.0357 183.339 18.6517C183.265 19.2064 183.154 19.8059 183.008 20.4494L179.568 36.555C180.261 36.9521 180.735 37.7472 180.735 38.6634C180.735 38.9404 180.691 39.2062 180.612 39.4534L180.394 40.3667C180.141 41.4351 179.262 42.1437 178.299 42.143V42.1503H168.086C167.649 42.1503 167.224 42.0715 166.812 41.9145C166.698 41.8711 166.587 41.8222 166.48 41.7679C166.137 42.0085 165.732 42.1433 165.312 42.143V42.1503H155.099C154.663 42.1503 154.238 42.0715 153.825 41.9145C153.702 41.8677 153.583 41.8145 153.468 41.7551C153.121 42.0038 152.71 42.1433 152.282 42.143V42.1503H142.069C141.632 42.1503 141.207 42.0715 140.795 41.9145C140.35 41.7451 139.956 41.4935 139.614 41.1607C139.266 40.8211 138.994 40.4264 138.8 39.9773C138.592 39.4979 138.489 38.9956 138.489 38.4706C138.489 38.2998 138.505 38.1334 138.536 37.9728L138.646 37.125C138.655 37.0558 138.666 36.9877 138.68 36.9208L138.68 36.9207L142.913 16.8561C142.268 16.4438 141.834 15.6777 141.834 14.8006C141.834 14.5885 141.86 14.3829 141.907 14.1872L142.105 13.1903C142.325 12.0759 143.225 11.3145 144.226 11.3157V11.3137V11.3137ZM144.226 13.6919H152.898C153.661 13.6919 154.241 13.9409 154.637 14.447C155.033 14.9533 155.231 15.6121 155.231 16.4316C155.231 16.753 155.217 17.0022 155.187 17.1627H155.804C156.508 15.9737 157.212 15.0899 157.917 14.5114C158.768 13.8044 159.78 13.4509 160.954 13.4509H164.168C166.809 13.4509 168.13 14.4632 168.13 16.4879C168.13 16.7771 168.115 17.0022 168.086 17.1627H168.614C169.406 15.8772 170.125 14.9774 170.771 14.4632C171.593 13.7883 172.605 13.4509 173.809 13.4509H176.186C178.064 13.4509 179.385 13.6999 180.148 14.198C180.911 14.6962 181.292 15.6202 181.292 16.97C181.292 17.7734 181.16 18.7536 180.896 19.9106L177.374 36.3976L177.33 37.1689C177.33 37.5224 177.462 37.86 177.727 38.1812C177.991 38.5027 178.269 38.6634 178.563 38.6634L178.299 39.7721H168.086C167.675 39.7721 167.337 39.6436 167.073 39.3865C166.809 39.1293 166.677 38.8241 166.677 38.4706L166.809 37.4581L170.023 22.4174C170.081 22.2246 170.111 21.9514 170.111 21.5978C170.111 20.8265 169.729 20.441 168.966 20.441C168.614 20.441 168.291 20.5855 167.998 20.8747C167.704 21.1641 167.499 21.614 167.381 22.2246L164.388 36.3976L164.344 37.1689C164.344 37.5224 164.476 37.86 164.74 38.1812C165.004 38.5027 165.283 38.6634 165.577 38.6634L165.312 39.7721H155.099C154.688 39.7721 154.351 39.6436 154.087 39.3865C153.823 39.1293 153.691 38.8241 153.691 38.4706L153.823 37.4581L157.036 22.3692C157.066 22.2085 157.088 22.0398 157.102 21.863C157.117 21.6863 157.124 21.5658 157.124 21.5015C157.124 20.7944 156.757 20.441 156.024 20.441C155.642 20.441 155.297 20.5695 154.989 20.8265C154.681 21.0837 154.468 21.5336 154.351 22.1764L151.357 36.3976L151.313 37.1689C151.313 37.5224 151.446 37.86 151.71 38.1812C151.974 38.5027 152.253 38.6634 152.546 38.6634L152.282 39.7721H142.069C141.658 39.7721 141.32 39.6436 141.056 39.3865C140.792 39.1293 140.66 38.8241 140.66 38.4706L140.792 37.4501L145.194 16.5843L145.238 15.8612C145.238 15.5398 145.106 15.2828 144.842 15.0899C144.578 14.8971 144.299 14.8006 144.006 14.8006L144.226 13.6919V13.6919Z" fill="white"/>
<path d="M21.3718 23.511L15.2527 33.731C14.9006 34.2452 14.6805 34.5826 14.5924 34.7433C14.4163 35.0647 14.3283 35.3861 14.3283 35.7076C14.3283 36.061 14.4751 36.3663 14.7685 36.6234C15.062 36.8806 15.3701 37.0091 15.693 37.0091L15.4728 38.1179H3.19079C2.22233 38.1179 1.73804 37.6037 1.73804 36.5752C1.73804 36.4145 1.76743 36.1413 1.82611 35.7556L7.85709 7.50605C7.91577 7.18464 7.78377 6.85521 7.46087 6.51777C7.13809 6.18033 6.81519 6.01162 6.49241 6.01162L6.80055 4.90283H19.0387C19.9777 4.90283 20.4474 5.41714 20.4474 6.43749C20.4474 6.566 20.4474 6.82315 20.4474 7.20882L17.718 19.6061L23.4849 10.0932C23.749 9.67537 23.9985 9.28169 24.2332 8.89603C24.468 8.51036 24.644 8.0444 24.7615 7.49803C24.8202 7.17662 24.7028 6.85521 24.4093 6.51777C24.1158 6.18033 23.8077 6.01162 23.4849 6.01162L23.705 4.90283H35.9429C36.4419 4.90283 36.8014 5.03949 37.0216 5.31267C37.2416 5.58586 37.3517 5.97955 37.3517 6.49373L37.2637 7.21684L31.2766 35.5147C31.218 35.8361 31.3501 36.1655 31.6729 36.5029C31.9958 36.8404 32.3185 37.0091 32.6413 37.0091L32.3332 38.1179H20.0952C19.156 38.1179 18.6865 37.6037 18.6865 36.5752C18.6865 36.4467 18.6865 36.1895 18.6865 35.8039L21.3718 23.511V23.511Z" fill="white"/>
<path d="M50.9104 35.8044L52.6713 27.4645H50.2941L48.7534 34.7438L48.7093 35.5151C48.7093 35.8686 48.8413 36.2062 49.1056 36.5275C49.3697 36.8489 49.6484 37.0096 49.9419 37.0096L49.6778 38.1184H38.6724C38.2615 38.1184 37.924 37.9898 37.6599 37.7327C37.3958 37.4755 37.2637 37.1703 37.2637 36.8168L37.3958 35.7963L41.6659 15.6616C41.7245 15.4689 41.7539 15.276 41.7539 15.0752C41.7539 14.8823 41.7539 14.7378 41.7539 14.6413C41.7539 14.2877 41.6218 13.9503 41.3577 13.629C41.0936 13.3076 40.8147 13.1469 40.5212 13.1469L40.7854 12.0381H51.7909C52.2017 12.0381 52.5392 12.1666 52.8034 12.4237C53.0675 12.6808 53.1996 12.9942 53.1996 13.3476L53.0675 14.3601L51.6147 21.1975H54.036L55.1806 15.6697C55.2393 15.4769 55.2685 15.284 55.2685 15.0832C55.2685 14.8903 55.2685 14.7458 55.2685 14.6493C55.2685 14.2958 55.1365 13.9583 54.8724 13.629C54.6082 13.3076 54.3295 13.1469 54.036 13.1469L54.3001 12.0381H65.3055C65.7165 12.0381 66.0539 12.1666 66.318 12.4237C66.5822 12.6808 66.7142 12.9862 66.7142 13.3396L66.5822 14.3601L62.2681 34.7358L62.2241 35.5151C62.2241 35.8686 62.356 36.2062 62.6202 36.5275C62.8844 36.8489 63.1631 37.0096 63.4566 37.0096L63.1925 38.1184H52.1871C51.7761 38.1184 51.4387 37.9898 51.1746 37.7327C50.9104 37.4755 50.7784 37.1703 50.7784 36.8168L50.9104 35.8044V35.8044Z" fill="white"/>
<path d="M70.192 12.0381H86.7881C88.6664 12.0381 90.1264 12.5362 91.1683 13.5405C92.2101 14.5368 92.7311 15.7983 92.7311 17.3168C92.7311 17.5417 92.709 17.7909 92.665 18.064C92.621 18.3371 92.5844 18.5541 92.555 18.7148C92.2028 20.3619 91.6965 21.5671 91.0362 22.3223C90.3759 23.0856 89.6055 23.5436 88.7251 23.7043C89.6348 24.1864 90.2805 24.7728 90.6621 25.4639C91.0435 26.1548 91.2343 26.9985 91.2343 27.9948C91.2343 28.4768 91.1976 28.9589 91.1243 29.441C91.0509 29.923 90.9262 30.6141 90.75 31.5139C90.2805 33.7957 89.4001 35.4669 88.1087 36.5275C86.8175 37.588 85.042 38.1184 82.7821 38.1184H68.0789C67.668 38.1184 67.3305 37.9898 67.0664 37.7327C66.8023 37.4755 66.6702 37.1703 66.6702 36.8168L66.8023 35.7963L71.0724 15.6616C71.131 15.4689 71.1604 15.276 71.1604 15.0752C71.1604 14.8823 71.1604 14.7378 71.1604 14.6413C71.1604 14.2877 71.0283 13.9503 70.7642 13.629C70.5001 13.3076 70.2212 13.1469 69.9277 13.1469L70.192 12.0381V12.0381ZM83.2224 20.2172L83.5305 18.8514C83.6773 18.1684 83.4572 17.823 82.8702 17.823H81.4615L80.7131 21.294H82.2099C82.7088 21.294 83.0462 20.9323 83.2224 20.2172ZM81.2414 29.5856L81.6376 27.7537C81.7843 26.9824 81.5788 26.5967 81.0212 26.5967H79.5686L78.7321 30.6461H80.1408C80.493 30.6461 80.7498 30.5578 80.9112 30.3811C81.0726 30.2042 81.1827 29.9392 81.2414 29.5856Z" fill="white"/>
<path d="M106.95 30.6461H110.516C111.69 30.6461 112.541 30.5337 113.069 30.3087C113.597 30.0837 113.979 29.6499 114.214 29.0072H115.314L114.214 33.9242C113.861 35.5634 113.231 36.6721 112.321 37.2506C111.411 37.8291 110.046 38.1184 108.227 38.1184H98.9381C96.8251 38.1184 95.2769 37.5962 94.2938 36.5516C93.3107 35.5071 92.8191 33.9564 92.8191 31.8996C92.8191 30.5498 93.0539 28.8143 93.5235 26.6932L94.6239 21.8724C95.3577 18.7068 96.6564 16.2803 98.5198 14.5851C100.383 12.8897 102.563 12.0381 105.057 12.0381H109.9C112.688 12.0381 114.727 12.5362 116.019 13.5405C117.31 14.5368 117.956 16.0233 117.956 17.9837C117.956 18.763 117.838 19.695 117.603 20.7958C117.046 23.4391 116.51 25.0782 115.997 25.729C115.483 26.3717 114.39 26.6932 112.717 26.6932H104.661L104.265 28.4768L104.133 29.5374C104.133 29.923 104.353 30.2042 104.793 30.3811C105.233 30.5578 105.952 30.6461 106.95 30.6461V30.6461ZM105.673 21.8724H107.17C107.728 21.8724 108.095 21.4787 108.271 20.6994L108.491 19.7673C108.549 19.5746 108.579 19.3496 108.579 19.0844C108.579 18.5621 108.241 18.3051 107.566 18.3051C107.067 18.3051 106.73 18.4256 106.554 18.6746C106.378 18.9157 106.231 19.3174 106.114 19.8718L105.673 21.8724V21.8724Z" fill="white"/>
<path d="M130.942 30.6461H135.3C135.799 30.6461 136.254 30.4774 136.665 30.14C137.076 29.8025 137.34 29.4249 137.457 29.0072H138.426L137.457 33.5868C137.046 35.4509 136.489 36.6721 135.784 37.2506C135.08 37.8291 133.95 38.1184 132.395 38.1184H124.427C122.226 38.1184 120.619 37.58 119.606 36.5034C118.594 35.4187 118.088 33.7717 118.088 31.5461C118.088 30.0677 118.278 28.4448 118.66 26.6691L119.672 21.8403C120.318 18.6505 121.624 16.192 123.59 14.4564C125.41 12.8415 127.582 12.0381 130.106 12.0381H140.319L139.262 17.1481C139.115 17.7587 138.734 18.2247 138.118 18.5461C137.501 18.8675 136.694 19.0282 135.696 19.0282H133.759C133.026 19.0282 132.395 19.2531 131.866 19.7031C131.338 20.161 130.986 20.8359 130.81 21.7359L129.665 27.2556C129.607 27.577 129.57 27.8984 129.555 28.2036C129.541 28.509 129.533 28.7902 129.533 29.0472C129.533 29.4973 129.673 29.883 129.951 30.1882C130.23 30.4936 130.56 30.6461 130.942 30.6461V30.6461Z" fill="white"/>
<path d="M143.18 12.0379H151.852C152.615 12.0379 153.195 12.2869 153.591 12.793C153.987 13.2993 154.186 13.9581 154.186 14.7776C154.186 15.099 154.171 15.3482 154.141 15.5087H154.758C155.462 14.3197 156.166 13.4359 156.871 12.8574C157.722 12.1504 158.734 11.7969 159.908 11.7969H163.122C165.763 11.7969 167.084 12.8092 167.084 14.8339C167.084 15.1231 167.069 15.3482 167.04 15.5087H167.568C168.361 14.2232 169.08 13.3234 169.725 12.8092C170.547 12.1343 171.559 11.7969 172.763 11.7969H175.14C177.018 11.7969 178.339 12.0459 179.102 12.544C179.865 13.0422 180.246 13.9662 180.246 15.316C180.246 16.1194 180.114 17.0996 179.85 18.2566L176.328 34.7436L176.284 35.5149C176.284 35.8684 176.417 36.206 176.681 36.5272C176.945 36.8487 177.223 37.0094 177.517 37.0094L177.253 38.1181H167.04C166.629 38.1181 166.292 37.9896 166.027 37.7325C165.763 37.4753 165.631 37.1701 165.631 36.8166L165.763 35.8041L168.977 20.7634C169.036 20.5706 169.065 20.2974 169.065 19.9438C169.065 19.1725 168.683 18.787 167.92 18.787C167.568 18.787 167.245 18.9315 166.952 19.2207C166.658 19.5101 166.453 19.96 166.336 20.5706L163.342 34.7436L163.298 35.5149C163.298 35.8684 163.43 36.206 163.694 36.5272C163.958 36.8487 164.237 37.0094 164.531 37.0094L164.266 38.1181H154.053C153.643 38.1181 153.305 37.9896 153.041 37.7325C152.777 37.4753 152.645 37.1701 152.645 36.8166L152.777 35.8041L155.99 20.7152C156.02 20.5545 156.042 20.3858 156.056 20.209C156.071 20.0323 156.078 19.9118 156.078 19.8475C156.078 19.1404 155.712 18.787 154.978 18.787C154.596 18.787 154.252 18.9155 153.943 19.1725C153.635 19.4297 153.422 19.8796 153.305 20.5224L150.312 34.7436L150.267 35.5149C150.267 35.8684 150.4 36.206 150.664 36.5272C150.928 36.8487 151.207 37.0094 151.5 37.0094L151.236 38.1181H141.023C140.612 38.1181 140.275 37.9896 140.01 37.7325C139.746 37.4753 139.614 37.1701 139.614 36.8166L139.746 35.7961L144.149 14.9303L144.192 14.2072C144.192 13.8858 144.06 13.6288 143.796 13.4359C143.532 13.2431 143.253 13.1466 142.96 13.1466L143.18 12.0379V12.0379Z" fill="white"/>
<path fill-rule="evenodd" clip-rule="evenodd" d="M17.3774 33.6501L16.7056 34.7723L16.6377 34.869C16.5839 34.9475 16.5303 35.0267 16.4768 35.1063H17.0594L17.3774 33.6501ZM21.3718 23.5115L15.2527 33.7314C14.9005 34.2456 14.6805 34.5831 14.5924 34.7438C14.4163 35.0652 14.3283 35.3866 14.3283 35.708C14.3283 36.0615 14.475 36.3667 14.7684 36.6239C15.0619 36.881 15.3701 37.0095 15.693 37.0095L15.4728 38.1183H3.19077C2.2223 38.1183 1.73801 37.6041 1.73801 36.5756C1.73801 36.4149 1.76741 36.1417 1.82609 35.7561L7.85706 7.50648C7.91574 7.18507 7.78375 6.85565 7.46085 6.51821C7.13806 6.18076 6.81516 6.01205 6.49238 6.01205L6.80052 4.90327H19.0386C19.9777 4.90327 20.4474 5.41758 20.4474 6.43792C20.4474 6.56643 20.4474 6.82359 20.4474 7.20926L17.718 19.6066L23.4849 10.0937C23.749 9.67581 23.9984 9.28213 24.2331 8.89646C24.468 8.5108 24.644 8.04484 24.7615 7.49847C24.8201 7.17706 24.7028 6.85565 24.4093 6.51821C24.1158 6.18076 23.8076 6.01205 23.4849 6.01205L23.7049 4.90327H35.9429C36.4418 4.90327 36.8013 5.03992 37.0215 5.31311C37.2416 5.58629 37.3516 5.97998 37.3516 6.49416L37.2637 7.21727L31.2766 35.5151C31.2179 35.8365 31.3501 36.1659 31.6728 36.5034C31.9957 36.8408 32.3185 37.0095 32.6413 37.0095L32.3332 38.1183H20.0952C19.156 38.1183 18.6864 37.6041 18.6864 36.5756C18.6864 36.4471 18.6864 36.19 18.6864 35.8043L21.3718 23.5115V23.5115ZM17.2381 38.177L17.17 38.5197L16.8719 40.0216H15.4728H3.19077C2.24159 40.0216 1.47553 39.7121 0.892825 39.0932C0.297687 38.4612 0 37.6218 0 36.5756C0 36.4307 0.0118524 36.2477 0.0356719 36.0271L0.0364861 36.0272C0.0528692 35.8749 0.0792453 35.6802 0.115265 35.4438L0.135599 35.3249L5.98729 7.91531H4.154L4.83582 5.46186L5.14396 4.35308L5.52008 3H6.80052H19.0386C19.9814 3 20.7411 3.3148 21.3167 3.94172C21.5785 4.22686 21.781 4.55349 21.9245 4.92096L22.0077 4.50183L22.3058 3H23.7049H35.9429C36.3725 3 36.7751 3.07126 37.1503 3.2139C37.6198 3.39229 38.0093 3.67323 38.3182 4.05661C38.8324 4.69485 39.0896 5.50754 39.0896 6.49416V6.57242L39.0693 6.73948L38.9814 7.46259L38.9672 7.58003L38.9542 7.64098L33.1433 35.1063H34.9798L34.2979 37.5597L33.9897 38.6685L33.6137 40.0216H32.3332H20.0952C19.152 40.0216 18.3912 39.7059 17.8133 39.0745L17.8098 39.0783C17.5686 38.8142 17.378 38.5136 17.2381 38.177V38.177ZM22.0738 7.91531L21.7033 9.59871L22.0387 9.04534L22.0592 9.01569L22.1082 8.93808C22.3103 8.61858 22.5018 8.3156 22.7461 7.91531H22.0738Z" fill="#0000FF"/>
<path fill-rule="evenodd" clip-rule="evenodd" d="M50.9104 35.8043L52.6713 27.4644H50.2941L48.7534 34.7437L48.7093 35.5151C48.7093 35.8686 48.8413 36.2061 49.1055 36.5274C49.3696 36.8488 49.6484 37.0095 49.9419 37.0095L49.6778 38.1183H38.6724C38.2615 38.1183 37.924 37.9898 37.6599 37.7326C37.3958 37.4755 37.2636 37.1702 37.2636 36.8168L37.3958 35.7963L41.6658 15.6616C41.7245 15.4688 41.7539 15.2759 41.7539 15.0751C41.7539 14.8822 41.7539 14.7377 41.7539 14.6412C41.7539 14.2876 41.6218 13.9502 41.3577 13.6289C41.0936 13.3075 40.8147 13.1468 40.5212 13.1468L40.7853 12.038H51.7909C52.2017 12.038 52.5391 12.1665 52.8034 12.4237C53.0675 12.6807 53.1996 12.9941 53.1996 13.3476L53.0675 14.36L51.6147 21.1974H54.0359L55.1805 15.6696C55.2392 15.4768 55.2685 15.2839 55.2685 15.0831C55.2685 14.8903 55.2685 14.7457 55.2685 14.6493C55.2685 14.2958 55.1365 13.9582 54.8724 13.6289C54.6082 13.3075 54.3294 13.1468 54.0359 13.1468L54.3 12.038H65.3055C65.7164 12.038 66.0539 12.1665 66.318 12.4237C66.5822 12.6807 66.7142 12.9861 66.7142 13.3396L66.5822 14.36L62.2681 34.7357L62.224 35.5151C62.224 35.8686 62.356 36.2061 62.6201 36.5274C62.8844 36.8488 63.1631 37.0095 63.4566 37.0095L63.1925 38.1183H52.1871C51.7761 38.1183 51.4387 37.9898 51.1746 37.7326C50.9104 37.4755 50.7784 37.1702 50.7784 36.8168L50.9104 35.8043V35.8043ZM51.0635 39.8167L51.0147 40.0216H49.6778H38.6724C38.2818 40.0216 37.9043 39.9521 37.5408 39.8137C37.1509 39.6652 36.8055 39.4445 36.5057 39.1526C36.2003 38.8553 35.9631 38.5111 35.7945 38.1212C35.6151 37.7069 35.5256 37.272 35.5256 36.8168V36.7137L35.546 36.5565L35.6781 35.5361L35.6898 35.4455L35.7053 35.3726L39.9753 15.2379L39.9856 15.1899L40.0203 15.0751H40.018C40.0168 15.0791 40.0159 15.0809 40.0159 15.0751V15.0501H38.2777L38.8443 12.6709L39.1084 11.5621L39.4485 10.1348H40.7853H51.7909C52.1787 10.1348 52.5533 10.203 52.9144 10.3396L52.9632 10.1348H54.3H65.3055C65.6961 10.1348 66.0735 10.204 66.4371 10.3427C66.8265 10.491 67.1719 10.7113 67.4721 11.0037C67.7773 11.3005 68.0145 11.6447 68.1833 12.035C68.3626 12.4491 68.4522 12.8843 68.4522 13.3396V13.4426L68.4319 13.5998L68.2999 14.6202L68.2727 14.7838L63.9902 35.0103L63.9847 35.1063H65.7003L65.1335 37.4854L64.8694 38.5942L64.5294 40.0216H63.1925H52.1871C51.7992 40.0216 51.4246 39.9531 51.0635 39.8167V39.8167ZM40.0203 15.0751L40.0229 15.0669L40.0224 15.0667C40.0215 15.0688 40.0203 15.0709 40.021 15.0665C40.0232 15.0516 40.0203 15.0675 40.018 15.0751H40.0203ZM40.0229 15.0669C40.024 15.0629 40.0233 15.0648 40.0224 15.0667L40.0229 15.0669Z" fill="#0000FF"/>
<path fill-rule="evenodd" clip-rule="evenodd" d="M70.1919 10.1348H86.7881C87.8974 10.1348 88.9041 10.2891 89.8078 10.5986C90.7758 10.93 91.612 11.4345 92.3157 12.113L92.3127 12.1167C93.023 12.7968 93.5597 13.5759 93.9218 14.4514C94.2867 15.3327 94.4691 16.2885 94.4691 17.3167C94.4691 17.4456 94.4591 17.6235 94.439 17.8505C94.4196 18.0697 94.3985 18.2509 94.3758 18.391C94.3414 18.6054 94.3835 18.3303 94.3085 18.7735C94.3007 18.8198 94.2818 18.9244 94.2522 19.0864L94.2454 19.146C94.0431 20.0921 93.7896 20.9274 93.4856 21.65C93.1543 22.4368 92.7563 23.0975 92.292 23.6307L92.2921 23.6308C92.1616 23.7816 92.0271 23.9242 91.8885 24.0588C91.982 24.1963 92.0689 24.3375 92.1489 24.4824C92.4271 24.9863 92.6359 25.5462 92.775 26.1614C92.9065 26.743 92.9723 27.3544 92.9723 27.9948C92.9723 28.2808 92.9608 28.574 92.938 28.8738C92.9176 29.1438 92.8832 29.4369 92.8351 29.7532C92.7887 30.0573 92.7367 30.3696 92.6794 30.6868C92.6251 30.9877 92.5477 31.3943 92.4472 31.9079L92.4405 31.9302C92.1683 33.2538 91.7672 34.4183 91.2379 35.4228C90.6782 36.4855 89.9812 37.3594 89.1475 38.0441C88.326 38.7186 87.3646 39.2207 86.2635 39.5495C85.2102 39.864 84.0494 40.0216 82.7821 40.0216H68.0788C67.6883 40.0216 67.3108 39.9521 66.9473 39.8137C66.5574 39.6652 66.212 39.4445 65.9122 39.1526C65.6067 38.8553 65.3696 38.5111 65.201 38.1212C65.0216 37.7069 64.9321 37.272 64.9321 36.8168V36.7137L64.9525 36.5565L65.0846 35.5361L65.0963 35.4455L65.1118 35.3726L69.3818 15.2379L69.3921 15.1899L69.4268 15.0751H69.4245C69.4233 15.0791 69.4224 15.0809 69.4224 15.0751V15.0501H67.6839L68.2508 12.6709L68.515 11.5621L68.8553 10.1348H70.1919V10.1348ZM70.1919 12.038H86.7881C88.6663 12.038 90.1264 12.5362 91.1683 13.5405C92.2101 14.5368 92.7311 15.7982 92.7311 17.3167C92.7311 17.5417 92.709 17.7908 92.665 18.0639C92.6209 18.3371 92.5843 18.554 92.555 18.7147C92.2028 20.3619 91.6965 21.5671 91.0362 22.3223C90.3759 23.0856 89.6055 23.5435 88.7251 23.7042C89.6348 24.1863 90.2805 24.7728 90.6621 25.4638C91.0435 26.1547 91.2343 26.9985 91.2343 27.9948C91.2343 28.4768 91.1976 28.9589 91.1243 29.441C91.0508 29.923 90.9262 30.614 90.75 31.5139C90.2805 33.7957 89.4001 35.4669 88.1087 36.5274C86.8175 37.588 85.0419 38.1183 82.7821 38.1183H68.0788C67.668 38.1183 67.3305 37.9898 67.0664 37.7326C66.8022 37.4755 66.6701 37.1702 66.6701 36.8168L66.8023 35.7963L71.0723 15.6616C71.131 15.4688 71.1604 15.2759 71.1604 15.0751C71.1604 14.8822 71.1604 14.7377 71.1604 14.6412C71.1604 14.2876 71.0283 13.9502 70.7642 13.6289C70.5001 13.3075 70.2212 13.1468 69.9277 13.1468L70.1919 12.038V12.038ZM83.2224 20.2172L83.5305 18.8514C83.6772 18.1684 83.4572 17.8229 82.8702 17.8229H81.4615L80.7131 21.2939H82.2099C82.7088 21.2939 83.0462 20.9323 83.2224 20.2172ZM81.2414 29.5855L81.6376 27.7536C81.7842 26.9823 81.5788 26.5967 81.0212 26.5967H79.5686L78.7321 30.6461H80.1408C80.493 30.6461 80.7498 30.5578 80.9112 30.381C81.0726 30.2042 81.1827 29.9391 81.2414 29.5855ZM69.4268 15.0751L69.4294 15.0669L69.4289 15.0667C69.428 15.0688 69.4268 15.0709 69.4275 15.0665C69.4297 15.0516 69.4268 15.0675 69.4245 15.0751H69.4268V15.0751ZM69.4294 15.0669C69.4305 15.0629 69.4298 15.0648 69.4289 15.0667L69.4294 15.0669Z" fill="#0000FF"/>
<path fill-rule="evenodd" clip-rule="evenodd" d="M106.95 28.7428H110.516C111.336 28.7428 111.923 28.694 112.277 28.5964H106.021L105.996 28.7068C106.253 28.7309 106.571 28.7428 106.95 28.7428V28.7428ZM106.95 30.6461H110.516C111.69 30.6461 112.541 30.5336 113.069 30.3087C113.597 30.0837 113.979 29.6498 114.214 29.0071H115.314L114.214 33.9242C113.861 35.5633 113.231 36.6721 112.321 37.2505C111.411 37.8291 110.046 38.1183 108.227 38.1183H98.9381C96.825 38.1183 95.2769 37.5961 94.2938 36.5516C93.3107 35.5071 92.8191 33.9564 92.8191 31.8995C92.8191 30.5498 93.0539 28.8142 93.5234 26.6931L94.6239 21.8723C95.3576 18.7067 96.6563 16.2802 98.5198 14.585C100.383 12.8897 102.563 12.038 105.057 12.038H109.899C112.688 12.038 114.727 12.5362 116.019 13.5405C117.31 14.5368 117.955 16.0232 117.955 17.9836C117.955 18.763 117.838 19.695 117.603 20.7957C117.046 23.439 116.51 25.0782 115.996 25.729C115.483 26.3717 114.39 26.6931 112.717 26.6931H104.661L104.265 28.4768L104.133 29.5373C104.133 29.923 104.353 30.2042 104.793 30.381C105.233 30.5578 105.952 30.6461 106.95 30.6461V30.6461ZM105.673 21.8723H107.17C107.728 21.8723 108.095 21.4787 108.271 20.6993L108.491 19.7673C108.549 19.5745 108.579 19.3495 108.579 19.0844C108.579 18.562 108.241 18.305 107.566 18.305C107.067 18.305 106.73 18.4255 106.554 18.6745C106.378 18.9156 106.231 19.3173 106.114 19.8717L105.673 21.8723V21.8723ZM117.195 27.1038H117.524L116.998 29.4532L115.901 34.3546L115.904 34.3554C115.684 35.3791 115.366 36.2572 114.949 36.9888C114.482 37.8096 113.896 38.4448 113.19 38.8936C112.565 39.2906 111.815 39.5821 110.941 39.7675C110.142 39.9368 109.237 40.0216 108.227 40.0216H98.9381C97.7184 40.0216 96.6332 39.8611 95.6831 39.5407C94.6431 39.1899 93.777 38.6469 93.0854 37.9122C92.4009 37.1847 91.8894 36.2879 91.5515 35.2223C91.238 34.233 91.0811 33.1251 91.0811 31.8995C91.0811 31.1414 91.1466 30.2782 91.2775 29.3106C91.399 28.4124 91.5864 27.391 91.8397 26.247V26.2321L92.9401 21.4113C93.3459 19.6608 93.9175 18.0966 94.6546 16.7182C95.4052 15.3145 96.325 14.1178 97.4132 13.1278C98.5093 12.1308 99.6966 11.3824 100.975 10.884C102.255 10.3849 103.616 10.1348 105.057 10.1348H109.899C111.401 10.1348 112.732 10.2768 113.894 10.5614C115.142 10.8674 116.183 11.3429 117.016 11.9882L117.017 11.9866C117.912 12.6777 118.587 13.5437 119.039 14.5812C119.475 15.5823 119.693 16.7174 119.693 17.9836C119.693 18.4337 119.657 18.9461 119.585 19.5219C119.516 20.0724 119.419 20.6403 119.294 21.227L119.292 21.2266C118.995 22.636 118.704 23.7752 118.421 24.6455C118.082 25.6841 117.711 26.4585 117.307 26.9706L117.3 26.978C117.266 27.0209 117.231 27.0627 117.195 27.1038V27.1038Z" fill="#0000FF"/>
<path fill-rule="evenodd" clip-rule="evenodd" d="M131.273 28.7428H135.3C135.42 28.7428 135.529 28.7029 135.626 28.6232C135.699 28.5634 135.755 28.5059 135.793 28.4513C135.801 28.4399 135.798 28.4597 135.801 28.4495L136.178 27.1038H137.457H138.426H140.608L140.116 29.4308L139.148 34.0105L139.141 34.0329C138.633 36.3371 137.86 37.9155 136.823 38.7672C136.271 39.2205 135.598 39.549 134.802 39.7526C134.102 39.9319 133.299 40.0216 132.395 40.0216H124.427C123.169 40.0216 122.049 39.8572 121.068 39.5286C119.993 39.1683 119.103 38.6131 118.398 37.8639L118.391 37.8564C117.689 37.1041 117.167 36.1709 116.824 35.0547C116.508 34.0227 116.35 32.8536 116.35 31.5461C116.35 30.7639 116.404 29.909 116.513 28.981C116.62 28.0705 116.772 27.1563 116.969 26.2378L116.971 26.2382L117.982 21.4166L117.985 21.4173C118.348 19.6292 118.898 18.0407 119.636 16.6514C120.397 15.2173 121.353 13.9927 122.504 12.9768L122.505 12.9777C123.578 12.0267 124.752 11.315 126.027 10.8423C127.3 10.3703 128.66 10.1348 130.106 10.1348H140.319H142.489L142.009 12.4544L140.953 17.5643L140.939 17.6313C140.796 18.2269 140.535 18.7567 140.156 19.2194C139.803 19.6503 139.372 19.9985 138.864 20.2634C138.01 20.7086 136.954 20.9314 135.696 20.9314H133.759C133.422 20.9314 133.146 21.0226 132.932 21.2048L132.928 21.1994C132.848 21.2715 132.777 21.3686 132.713 21.4904C132.627 21.6564 132.558 21.8697 132.507 22.1299L132.5 22.1521L131.365 27.6263L131.369 27.6272C131.337 27.8054 131.318 27.9194 131.312 27.9702C131.301 28.0634 131.292 28.1741 131.287 28.3003C131.28 28.4331 131.276 28.5806 131.273 28.7428V28.7428ZM130.942 30.6461H135.3C135.799 30.6461 136.254 30.4774 136.665 30.1399C137.076 29.8025 137.34 29.4248 137.457 29.0071H138.426L137.457 33.5868C137.046 35.4508 136.489 36.6721 135.784 37.2505C135.08 37.8291 133.95 38.1183 132.395 38.1183H124.427C122.226 38.1183 120.619 37.5799 119.606 36.5034C118.594 35.4186 118.088 33.7716 118.088 31.5461C118.088 30.0677 118.278 28.4447 118.66 26.6691L119.672 21.8403C120.318 18.6505 121.624 16.1919 123.59 14.4564C125.41 12.8414 127.582 12.038 130.106 12.038H140.319L139.262 17.148C139.115 17.7586 138.734 18.2246 138.117 18.546C137.501 18.8674 136.694 19.0281 135.696 19.0281H133.759C133.026 19.0281 132.395 19.2531 131.866 19.703C131.338 20.1609 130.986 20.8358 130.81 21.7358L129.665 27.2555C129.607 27.5769 129.57 27.8983 129.555 28.2036C129.541 28.509 129.533 28.7902 129.533 29.0472C129.533 29.4972 129.673 29.8829 129.951 30.1881C130.23 30.4935 130.56 30.6461 130.942 30.6461V30.6461Z" fill="#0000FF"/>
<path fill-rule="evenodd" clip-rule="evenodd" d="M143.18 10.1346H151.852C152.453 10.1346 153.001 10.2412 153.497 10.4562C154.049 10.6949 154.519 11.062 154.908 11.5589C155.005 11.6827 155.095 11.8115 155.178 11.9449C155.395 11.7225 155.612 11.5211 155.832 11.3407L155.833 11.3419C156.415 10.8593 157.053 10.4972 157.746 10.2554C158.437 10.0142 159.157 9.89355 159.908 9.89355H163.122C165.525 9.89355 167.169 10.5527 168.052 11.8705C168.273 11.6416 168.492 11.4414 168.707 11.2702L168.709 11.2739C169.84 10.3539 171.191 9.89355 172.763 9.89355H175.14C176.168 9.89355 177.065 9.96583 177.831 10.1101C178.699 10.2736 179.419 10.5425 179.991 10.9158C180.685 11.3688 181.202 12.0072 181.542 12.83C181.837 13.544 181.984 14.3728 181.984 15.3159C181.984 15.8003 181.944 16.3384 181.865 16.9291C181.792 17.472 181.683 18.0594 181.54 18.6907L178.05 35.0308L178.045 35.106H179.761L179.194 37.4852L178.93 38.594L178.59 40.0214H177.253H167.04C166.649 40.0214 166.272 39.9519 165.908 39.8134C165.829 39.7833 165.752 39.7502 165.676 39.7142L165.603 40.0214H164.266H154.053C153.663 40.0214 153.285 39.9519 152.922 39.8134C152.829 39.7781 152.738 39.7385 152.65 39.6949L152.573 40.0214H151.236H141.023C140.633 40.0214 140.255 39.9519 139.891 39.8134C139.502 39.6651 139.156 39.4443 138.856 39.1524C138.551 38.8552 138.314 38.5111 138.145 38.121C137.966 37.7067 137.876 37.2718 137.876 36.8165V36.7135L137.897 36.5563L138.029 35.5359L138.056 35.3724L142.343 15.0499H140.805L141.263 12.7452L141.483 11.6364L141.781 10.1346H143.18V10.1346ZM143.18 12.0378H151.852C152.615 12.0378 153.195 12.2868 153.591 12.793C153.987 13.2993 154.185 13.958 154.185 14.7776C154.185 15.099 154.171 15.3481 154.141 15.5087H154.758C155.462 14.3196 156.166 13.4358 156.871 12.8574C157.722 12.1503 158.734 11.7968 159.908 11.7968H163.122C165.763 11.7968 167.084 12.8091 167.084 14.8338C167.084 15.123 167.069 15.3481 167.04 15.5087H167.568C168.361 14.2232 169.08 13.3233 169.725 12.8092C170.547 12.1343 171.559 11.7968 172.763 11.7968H175.14C177.018 11.7968 178.339 12.0458 179.102 12.544C179.865 13.0421 180.246 13.9662 180.246 15.3159C180.246 16.1193 180.114 17.0996 179.85 18.2566L176.328 34.7435L176.284 35.5149C176.284 35.8683 176.417 36.2059 176.681 36.5272C176.945 36.8486 177.223 37.0093 177.517 37.0093L177.253 38.1181H167.04C166.629 38.1181 166.291 37.9896 166.027 37.7324C165.763 37.4753 165.631 37.17 165.631 36.8165L165.763 35.8041L168.977 20.7634C169.035 20.5706 169.065 20.2974 169.065 19.9438C169.065 19.1725 168.683 18.7869 167.92 18.7869C167.568 18.7869 167.245 18.9315 166.952 19.2207C166.658 19.51 166.453 19.9599 166.336 20.5706L163.342 34.7435L163.298 35.5149C163.298 35.8683 163.43 36.2059 163.694 36.5272C163.958 36.8486 164.237 37.0093 164.531 37.0093L164.266 38.1181H154.053C153.643 38.1181 153.305 37.9896 153.041 37.7324C152.777 37.4753 152.645 37.17 152.645 36.8165L152.777 35.8041L155.99 20.7151C156.02 20.5544 156.042 20.3857 156.056 20.209C156.071 20.0322 156.078 19.9117 156.078 19.8475C156.078 19.1404 155.712 18.7869 154.978 18.7869C154.596 18.7869 154.251 18.9154 153.943 19.1725C153.635 19.4296 153.422 19.8795 153.305 20.5224L150.312 34.7435L150.267 35.5149C150.267 35.8683 150.4 36.2059 150.664 36.5272C150.928 36.8486 151.207 37.0093 151.5 37.0093L151.236 38.1181H141.023C140.612 38.1181 140.275 37.9896 140.01 37.7324C139.746 37.4753 139.614 37.17 139.614 36.8165L139.746 35.7961L144.149 14.9302L144.192 14.2071C144.192 13.8857 144.06 13.6287 143.796 13.4358C143.532 13.243 143.253 13.1466 142.96 13.1466L143.18 12.0378V12.0378Z" fill="#0000FF"/>
<path d="M200.898 5.52578H218.903C219.373 5.52578 219.827 5.41329 220.268 5.19635C220.708 4.9794 220.987 4.67416 221.104 4.27246H222.117L220.356 11.6882C220.062 12.7247 219.196 13.2389 217.758 13.2389H215.161L210.231 36.1372C210.172 36.4586 210.304 36.7881 210.627 37.1255C210.95 37.4629 211.273 37.6317 211.595 37.6317L211.287 38.7404H199.049C198.11 38.7404 197.641 38.2263 197.641 37.1978C197.641 37.0693 197.67 36.8121 197.729 36.4344L202.703 13.2389H199.666C199.196 13.2389 198.807 13.3513 198.499 13.5844C198.191 13.8174 197.978 14.1227 197.861 14.4923H196.76L198.521 6.81944C198.638 6.36939 198.873 6.0481 199.225 5.83917C199.578 5.63024 200.135 5.52578 200.898 5.52578V5.52578Z" fill="white"/>
<path d="M234.663 15.0065L234.398 16.1795H234.927C235.807 14.862 236.526 13.962 237.084 13.48C237.935 12.7729 239.021 12.4194 240.341 12.4194H242.454C244.215 12.4194 245.485 12.8934 246.262 13.8415C247.04 14.7896 247.429 16.2117 247.429 18.1079C247.429 19.4576 247.223 21.1126 246.813 23.0732L245.58 28.8098C244.67 32.9876 243.555 35.7195 242.234 37.005C241.031 38.162 238.903 38.7405 235.851 38.7405H229.644L228.72 43.2719L228.676 44.0432C228.676 44.3967 228.808 44.7341 229.072 45.0555C229.336 45.3769 229.615 45.5377 229.908 45.5377L229.644 46.6464H218.639C218.228 46.6464 217.89 46.5178 217.626 46.2608C217.362 46.0036 217.23 45.6982 217.23 45.3448L217.362 44.3324L223.261 16.276C223.32 16.0832 223.349 15.8903 223.349 15.6975C223.349 15.5046 223.349 15.3601 223.349 15.2636C223.349 14.91 223.217 14.5726 222.953 14.2513C222.689 13.9299 222.41 13.7692 222.116 13.7692L222.381 12.6604H233.386C233.797 12.6604 234.134 12.789 234.398 13.0541C234.663 13.3113 234.795 13.6245 234.795 13.9781L234.663 15.0065V15.0065ZM233.342 21.1448L231.009 32.1843H232.55C233.342 32.1843 233.841 31.7021 234.046 30.7382L235.983 21.5787C236.042 21.3858 236.071 21.0806 236.071 20.6627C236.071 20.0202 235.734 19.6988 235.059 19.6988H234.883C234.443 19.6988 234.098 19.8273 233.848 20.0843C233.599 20.3413 233.43 20.6949 233.342 21.1448V21.1448Z" fill="white"/>
<path d="M261.603 31.2686H265.169C266.343 31.2686 267.194 31.1561 267.722 30.9311C268.251 30.7062 268.632 30.2723 268.867 29.6296H269.967L268.867 34.5466C268.515 36.1857 267.884 37.2944 266.974 37.8729C266.064 38.4514 264.7 38.7407 262.88 38.7407H253.592C251.479 38.7407 249.93 38.2185 248.947 37.1739C247.964 36.1294 247.473 34.5787 247.473 32.5219C247.473 31.1723 247.707 29.4367 248.177 27.3156L249.277 22.4948C250.011 19.3293 251.31 16.9028 253.173 15.2076C255.037 13.5123 257.216 12.6606 259.71 12.6606H264.553C267.341 12.6606 269.381 13.1588 270.672 14.1631C271.963 15.1594 272.609 16.6458 272.609 18.6062C272.609 19.3856 272.491 20.3175 272.257 21.4182C271.699 24.0615 271.163 25.7006 270.65 26.3515C270.136 26.9942 269.043 27.3156 267.37 27.3156H259.314L258.918 29.0992L258.786 30.1598C258.786 30.5455 259.006 30.8267 259.446 31.0035C259.887 31.1803 260.606 31.2686 261.603 31.2686V31.2686ZM260.327 22.4948H261.823C262.381 22.4948 262.748 22.1011 262.924 21.3218L263.144 20.3898C263.203 20.197 263.232 19.9722 263.232 19.707C263.232 19.1847 262.895 18.9276 262.22 18.9276C261.721 18.9276 261.383 19.0481 261.207 19.2971C261.031 19.5383 260.884 19.94 260.767 20.4942L260.327 22.4948V22.4948Z" fill="white"/>
<path d="M287.004 30.7307L290.085 16.2846C290.144 16.0918 290.173 15.8989 290.173 15.7061C290.173 15.5132 290.173 15.3687 290.173 15.2642C290.173 14.9106 290.041 14.5732 289.777 14.2519C289.513 13.9305 289.234 13.7698 288.941 13.7698L289.205 12.661H300.21C300.621 12.661 300.959 12.7895 301.223 13.0467C301.487 13.3037 301.619 13.6091 301.619 13.9625L301.487 14.975L297.173 35.3182L297.085 36.403C297.085 36.7324 297.224 37.0136 297.503 37.2626C297.782 37.5117 298.068 37.6322 298.361 37.6322L298.141 38.741H288.236C287.503 38.741 286.96 38.5643 286.608 38.2107C286.256 37.8572 286.079 37.3913 286.079 36.8127C286.079 36.5235 286.167 36.0253 286.343 35.3182H285.815C285.052 36.636 284.363 37.5358 283.746 38.0179C282.895 38.6928 281.78 39.0302 280.401 39.0302H277.055C275.411 39.0302 274.238 38.733 273.533 38.1384C272.829 37.5438 272.477 36.6279 272.477 35.4067C272.477 34.6032 272.58 33.7676 272.785 32.8919L276.307 16.2846C276.365 16.0918 276.395 15.8989 276.395 15.6981C276.395 15.5052 276.395 15.3607 276.395 15.2642C276.395 14.9106 276.263 14.5732 275.998 14.2519C275.734 13.9305 275.456 13.7698 275.162 13.7698L275.426 12.661H286.432C286.842 12.661 287.18 12.7895 287.444 13.0467C287.708 13.3037 287.84 13.6091 287.84 13.9625L287.708 14.983L284.363 30.8833C284.304 31.2689 284.274 31.526 284.274 31.6545C284.274 32.2008 284.641 32.474 285.375 32.474C285.845 32.474 286.204 32.3213 286.454 32.0161C286.703 31.7107 286.886 31.2851 287.004 30.7307V30.7307ZM296.16 10.1542H283.614C283.145 10.1542 282.756 10.0336 282.448 9.79262C282.139 9.55163 281.985 9.14178 281.985 8.56347L282.073 7.74391L282.558 5.52637H295.148C296.234 5.52637 296.777 6.0245 296.777 7.0208L296.688 7.79213L296.16 10.1542Z" fill="white"/>
<path d="M312.976 12.6606H324.73C326.139 12.6606 327.202 12.9981 327.921 13.681C328.64 14.3559 329 15.2879 329 16.4851C329 16.7421 329 16.9833 329 17.2082C328.912 17.5939 328.853 17.8911 328.824 18.084L324.906 36.5713C324.026 40.6368 322.749 43.3524 321.076 44.7263C319.521 46.0038 316.938 46.6466 313.328 46.6466H304.128C302.661 46.6466 301.531 46.3573 300.738 45.7789C299.946 45.2003 299.55 44.2522 299.55 42.9346C299.55 42.3562 299.638 41.6974 299.814 40.9582L300.738 36.9088H301.751C301.897 37.6159 302.169 38.13 302.565 38.4514C302.961 38.7728 303.629 38.9334 304.568 38.9334H309.895C311.157 38.9334 312.103 38.6522 312.734 38.0898C313.365 37.5274 313.798 36.6196 314.033 35.3661L314.341 33.8234H313.637C312.991 35.0447 312.272 35.8322 311.479 36.1857C310.893 36.4428 309.821 36.5713 308.266 36.5713H306.065C302.983 36.5713 301.443 34.7555 301.443 31.116C301.443 29.5653 301.677 27.7655 302.147 25.7007L303.027 21.7397C303.732 18.4535 305.082 16.0592 307.077 14.5408C308.721 13.2873 310.687 12.6606 312.976 12.6606ZM315.353 29.1395L317.511 18.9276H316.366H315.97C315.618 18.9276 315.302 19.0481 315.023 19.2891C314.744 19.5302 314.546 19.9079 314.429 20.43L312.712 28.7056C312.653 28.8985 312.624 29.2037 312.624 29.6296C312.624 30.2723 312.962 30.5937 313.637 30.5937H313.813C314.253 30.5937 314.598 30.4652 314.847 30.208C315.097 29.951 315.265 29.5894 315.353 29.1395V29.1395Z" fill="white"/>
<path d="M200.898 5.52578H218.903C219.373 5.52578 219.827 5.41329 220.268 5.19635C220.708 4.9794 220.987 4.67416 221.104 4.27246H222.117L220.356 11.6882C220.062 12.7247 219.196 13.2389 217.758 13.2389H215.161L210.231 36.1372C210.172 36.4586 210.304 36.7881 210.627 37.1255C210.95 37.4629 211.273 37.6317 211.595 37.6317L211.287 38.7404H199.049C198.11 38.7404 197.641 38.2263 197.641 37.1978C197.641 37.0693 197.67 36.8121 197.729 36.4344L202.703 13.2389H199.666C199.196 13.2389 198.807 13.3513 198.499 13.5844C198.191 13.8174 197.978 14.1227 197.861 14.4923H196.76L198.521 6.81944C198.638 6.36939 198.873 6.0481 199.225 5.83917C199.578 5.63024 200.135 5.52578 200.898 5.52578V5.52578Z" stroke="white" stroke-width="7.06394" stroke-miterlimit="22.9256" stroke-linejoin="round"/>
<path d="M234.663 15.0065L234.398 16.1795H234.927C235.807 14.862 236.526 13.962 237.084 13.48C237.935 12.7729 239.021 12.4194 240.341 12.4194H242.454C244.215 12.4194 245.485 12.8934 246.262 13.8415C247.04 14.7896 247.429 16.2117 247.429 18.1079C247.429 19.4576 247.223 21.1126 246.813 23.0732L245.58 28.8098C244.67 32.9876 243.555 35.7195 242.234 37.005C241.031 38.162 238.903 38.7405 235.851 38.7405H229.644L228.72 43.2719L228.676 44.0432C228.676 44.3967 228.808 44.7341 229.072 45.0555C229.336 45.3769 229.615 45.5377 229.908 45.5377L229.644 46.6464H218.639C218.228 46.6464 217.89 46.5178 217.626 46.2608C217.362 46.0036 217.23 45.6982 217.23 45.3448L217.362 44.3324L223.261 16.276C223.32 16.0832 223.349 15.8903 223.349 15.6975C223.349 15.5046 223.349 15.3601 223.349 15.2636C223.349 14.91 223.217 14.5726 222.953 14.2513C222.689 13.9299 222.41 13.7692 222.116 13.7692L222.381 12.6604H233.386C233.797 12.6604 234.134 12.789 234.398 13.0541C234.663 13.3113 234.795 13.6245 234.795 13.9781L234.663 15.0065V15.0065ZM233.342 21.1448L231.009 32.1843H232.55C233.342 32.1843 233.841 31.7021 234.046 30.7382L235.983 21.5787C236.042 21.3858 236.071 21.0806 236.071 20.6627C236.071 20.0202 235.734 19.6988 235.059 19.6988H234.883C234.443 19.6988 234.098 19.8273 233.848 20.0843C233.599 20.3413 233.43 20.6949 233.342 21.1448V21.1448Z" stroke="white" stroke-width="7.06394" stroke-miterlimit="22.9256" stroke-linejoin="round"/>
<path d="M261.603 31.2686H265.169C266.343 31.2686 267.194 31.1561 267.722 30.9311C268.251 30.7062 268.632 30.2723 268.867 29.6296H269.967L268.867 34.5466C268.515 36.1857 267.884 37.2944 266.974 37.8729C266.064 38.4514 264.7 38.7407 262.88 38.7407H253.592C251.479 38.7407 249.93 38.2185 248.947 37.1739C247.964 36.1294 247.473 34.5787 247.473 32.5219C247.473 31.1723 247.707 29.4367 248.177 27.3156L249.277 22.4948C250.011 19.3293 251.31 16.9028 253.173 15.2076C255.037 13.5123 257.216 12.6606 259.71 12.6606H264.553C267.341 12.6606 269.381 13.1588 270.672 14.1631C271.963 15.1594 272.609 16.6458 272.609 18.6062C272.609 19.3856 272.491 20.3175 272.257 21.4182C271.699 24.0615 271.163 25.7006 270.65 26.3515C270.136 26.9942 269.043 27.3156 267.37 27.3156H259.314L258.918 29.0992L258.786 30.1598C258.786 30.5455 259.006 30.8267 259.446 31.0035C259.887 31.1803 260.606 31.2686 261.603 31.2686V31.2686ZM260.327 22.4948H261.823C262.381 22.4948 262.748 22.1011 262.924 21.3218L263.144 20.3898C263.203 20.197 263.232 19.9722 263.232 19.707C263.232 19.1847 262.895 18.9276 262.22 18.9276C261.721 18.9276 261.383 19.0481 261.207 19.2971C261.031 19.5383 260.884 19.94 260.767 20.4942L260.327 22.4948V22.4948Z" stroke="white" stroke-width="7.06394" stroke-miterlimit="22.9256" stroke-linejoin="round"/>
<path d="M287.004 30.7307L290.085 16.2846C290.144 16.0918 290.173 15.8989 290.173 15.7061C290.173 15.5132 290.173 15.3687 290.173 15.2642C290.173 14.9106 290.041 14.5732 289.777 14.2519C289.513 13.9305 289.234 13.7698 288.941 13.7698L289.205 12.661H300.21C300.621 12.661 300.959 12.7895 301.223 13.0467C301.487 13.3037 301.619 13.6091 301.619 13.9625L301.487 14.975L297.173 35.3182L297.085 36.403C297.085 36.7324 297.224 37.0136 297.503 37.2626C297.782 37.5117 298.068 37.6322 298.361 37.6322L298.141 38.741H288.236C287.503 38.741 286.96 38.5643 286.608 38.2107C286.256 37.8572 286.079 37.3913 286.079 36.8127C286.079 36.5235 286.167 36.0253 286.343 35.3182H285.815C285.052 36.636 284.363 37.5358 283.746 38.0179C282.895 38.6928 281.78 39.0302 280.401 39.0302H277.055C275.411 39.0302 274.238 38.733 273.533 38.1384C272.829 37.5438 272.477 36.6279 272.477 35.4067C272.477 34.6032 272.58 33.7676 272.785 32.8919L276.307 16.2846C276.365 16.0918 276.395 15.8989 276.395 15.6981C276.395 15.5052 276.395 15.3607 276.395 15.2642C276.395 14.9106 276.263 14.5732 275.998 14.2519C275.734 13.9305 275.456 13.7698 275.162 13.7698L275.426 12.661H286.432C286.842 12.661 287.18 12.7895 287.444 13.0467C287.708 13.3037 287.84 13.6091 287.84 13.9625L287.708 14.983L284.363 30.8833C284.304 31.2689 284.274 31.526 284.274 31.6545C284.274 32.2008 284.641 32.474 285.375 32.474C285.845 32.474 286.204 32.3213 286.454 32.0161C286.703 31.7107 286.886 31.2851 287.004 30.7307V30.7307ZM296.16 10.1542H283.614C283.145 10.1542 282.756 10.0336 282.448 9.79262C282.139 9.55163 281.985 9.14178 281.985 8.56347L282.073 7.74391L282.558 5.52637H295.148C296.234 5.52637 296.777 6.0245 296.777 7.0208L296.688 7.79213L296.16 10.1542Z" stroke="white" stroke-width="7.06394" stroke-miterlimit="22.9256" stroke-linejoin="round"/>
<path d="M312.976 12.6606H324.73C326.139 12.6606 327.202 12.9981 327.921 13.681C328.64 14.3559 329 15.2879 329 16.4851C329 16.7421 329 16.9833 329 17.2082C328.912 17.5939 328.853 17.8911 328.824 18.084L324.906 36.5713C324.026 40.6368 322.749 43.3524 321.076 44.7263C319.521 46.0038 316.938 46.6466 313.328 46.6466H304.128C302.661 46.6466 301.531 46.3573 300.738 45.7789C299.946 45.2003 299.55 44.2522 299.55 42.9346C299.55 42.3562 299.638 41.6974 299.814 40.9582L300.738 36.9088H301.751C301.897 37.6159 302.169 38.13 302.565 38.4514C302.961 38.7728 303.629 38.9334 304.568 38.9334H309.895C311.157 38.9334 312.103 38.6522 312.734 38.0898C313.365 37.5274 313.798 36.6196 314.033 35.3661L314.341 33.8234H313.637C312.991 35.0447 312.272 35.8322 311.479 36.1857C310.893 36.4428 309.821 36.5713 308.266 36.5713H306.065C302.983 36.5713 301.443 34.7555 301.443 31.116C301.443 29.5653 301.677 27.7655 302.147 25.7007L303.027 21.7397C303.732 18.4535 305.082 16.0592 307.077 14.5408C308.721 13.2873 310.687 12.6606 312.976 12.6606ZM315.353 29.1395L317.511 18.9276H316.366H315.97C315.618 18.9276 315.302 19.0481 315.023 19.2891C314.744 19.5302 314.546 19.9079 314.429 20.43L312.712 28.7056C312.653 28.8985 312.624 29.2037 312.624 29.6296C312.624 30.2723 312.962 30.5937 313.637 30.5937H313.813C314.253 30.5937 314.598 30.4652 314.847 30.208C315.097 29.951 315.265 29.5894 315.353 29.1395V29.1395Z" stroke="white" stroke-width="7.06394" stroke-miterlimit="22.9256" stroke-linejoin="round"/>
<path d="M199.968 4.25332H217.973C218.443 4.25332 218.898 4.14084 219.338 3.9239C219.778 3.70695 220.057 3.4017 220.174 3H221.187L219.426 10.4158C219.132 11.4523 218.267 11.9665 216.829 11.9665H214.231L209.301 34.8649C209.242 35.1863 209.374 35.5157 209.697 35.8532C210.02 36.1905 210.343 36.3592 210.666 36.3592L210.357 37.468H198.12C197.18 37.468 196.711 36.9538 196.711 35.9254C196.711 35.7969 196.74 35.5398 196.799 35.1621L201.773 11.9665H198.736C198.266 11.9665 197.877 12.079 197.569 12.3121C197.261 12.5451 197.048 12.8503 196.931 13.22H195.83L197.591 5.54699C197.709 5.09694 197.943 4.77565 198.296 4.56673C198.648 4.3578 199.205 4.25332 199.968 4.25332V4.25332Z" fill="#0000FF"/>
<path d="M233.733 13.7339L233.469 14.9069H233.997C234.877 13.5894 235.597 12.6895 236.154 12.2075C237.005 11.5005 238.091 11.147 239.412 11.147H241.525C243.286 11.147 244.555 11.621 245.333 12.569C246.11 13.517 246.499 14.9391 246.499 16.8353C246.499 18.185 246.294 19.8402 245.883 21.8007L244.65 27.5372C243.74 31.7152 242.625 34.447 241.305 35.7325C240.101 36.8894 237.974 37.4679 234.921 37.4679H228.715L227.79 41.9994L227.746 42.7707C227.746 43.1242 227.878 43.4617 228.142 43.7831C228.406 44.1045 228.685 44.2652 228.979 44.2652L228.715 45.374H217.709C217.298 45.374 216.961 45.2453 216.697 44.9883C216.433 44.7311 216.301 44.4258 216.301 44.0723L216.433 43.06L222.332 15.0034C222.39 14.8106 222.42 14.6177 222.42 14.4249C222.42 14.2321 222.42 14.0875 222.42 13.9911C222.42 13.6375 222.287 13.3 222.023 12.9789C221.759 12.6575 221.48 12.4967 221.187 12.4967L221.451 11.388H232.456C232.867 11.388 233.205 11.5165 233.469 11.7817C233.733 12.0388 233.865 12.3521 233.865 12.7057L233.733 13.7339V13.7339ZM232.412 19.8724L230.079 30.9118H231.62C232.412 30.9118 232.911 30.4297 233.117 29.4656L235.054 20.3063C235.112 20.1134 235.142 19.8081 235.142 19.3903C235.142 18.7476 234.804 18.4262 234.129 18.4262H233.953C233.513 18.4262 233.168 18.5547 232.919 18.8118C232.669 19.0689 232.5 19.4225 232.412 19.8724V19.8724Z" fill="#0000FF"/>
<path d="M260.674 29.996H264.24C265.414 29.996 266.265 29.8835 266.793 29.6585C267.321 29.4336 267.703 28.9997 267.938 28.357H269.038L267.938 33.2741C267.585 34.9132 266.954 36.0219 266.045 36.6003C265.135 37.1789 263.77 37.4681 261.951 37.4681H252.662C250.549 37.4681 249.001 36.9459 248.018 35.9015C247.035 34.857 246.543 33.3063 246.543 31.2494C246.543 29.8997 246.778 28.1641 247.248 26.043L248.348 21.2224C249.082 18.0567 250.38 15.6303 252.244 13.935C254.108 12.2398 256.287 11.3882 258.781 11.3882H263.624C266.411 11.3882 268.451 11.8863 269.742 12.8906C271.034 13.8868 271.679 15.3732 271.679 17.3336C271.679 18.113 271.562 19.045 271.327 20.1458C270.77 22.7891 270.234 24.4282 269.72 25.0789C269.207 25.7216 268.114 26.043 266.441 26.043H258.385L257.989 27.8267L257.857 28.8872C257.857 29.2729 258.077 29.5541 258.517 29.7309C258.957 29.9077 259.676 29.996 260.674 29.996ZM259.397 21.2224H260.894C261.452 21.2224 261.819 20.8287 261.995 20.0493L262.215 19.1173C262.273 18.9245 262.303 18.6996 262.303 18.4344C262.303 17.9121 261.965 17.655 261.29 17.655C260.791 17.655 260.454 17.7755 260.278 18.0245C260.102 18.2657 259.955 18.6674 259.838 19.2218L259.397 21.2224V21.2224Z" fill="#0000FF"/>
<path d="M286.074 29.4573L289.156 15.0111C289.214 14.8184 289.244 14.6255 289.244 14.4327C289.244 14.2398 289.244 14.0953 289.244 13.9908C289.244 13.6372 289.112 13.2998 288.848 12.9786C288.584 12.6572 288.305 12.4965 288.011 12.4965L288.275 11.3877H299.281C299.692 11.3877 300.029 11.5162 300.293 11.7734C300.557 12.0304 300.689 12.3358 300.689 12.6892L300.557 13.7016L296.243 34.0449L296.155 35.1297C296.155 35.4591 296.295 35.7403 296.573 35.9892C296.852 36.2383 297.138 36.3588 297.432 36.3588L297.212 37.4676H287.307C286.573 37.4676 286.03 37.2909 285.678 36.9373C285.326 36.5838 285.15 36.1178 285.15 35.5394C285.15 35.2502 285.238 34.752 285.414 34.0449H284.886C284.123 35.3627 283.433 36.2624 282.817 36.7445C281.966 37.4194 280.85 37.7568 279.471 37.7568H276.125C274.482 37.7568 273.308 37.4596 272.604 36.865C271.899 36.2704 271.547 35.3546 271.547 34.1334C271.547 33.3299 271.65 32.4943 271.856 31.6186L275.377 15.0111C275.436 14.8184 275.465 14.6255 275.465 14.4247C275.465 14.2318 275.465 14.0872 275.465 13.9908C275.465 13.6372 275.333 13.2998 275.069 12.9786C274.805 12.6572 274.526 12.4965 274.233 12.4965L274.497 11.3877H285.502C285.913 11.3877 286.25 11.5162 286.514 11.7734C286.779 12.0304 286.911 12.3358 286.911 12.6892L286.779 13.7096L283.433 29.6098C283.374 29.9955 283.345 30.2527 283.345 30.3812C283.345 30.9275 283.712 31.2007 284.446 31.2007C284.915 31.2007 285.275 31.048 285.524 30.7428C285.773 30.4374 285.957 30.0117 286.074 29.4573V29.4573ZM295.231 8.88094H282.685C282.215 8.88094 281.826 8.76031 281.518 8.51932C281.21 8.27833 281.056 7.86848 281.056 7.29004L281.144 6.47048L281.628 4.25293H294.218C295.304 4.25293 295.847 4.75108 295.847 5.74737L295.759 6.51871L295.231 8.88094Z" fill="#0000FF"/>
<path d="M312.047 11.3882H323.801C325.209 11.3882 326.273 11.7256 326.992 12.4085C327.711 13.0834 328.071 14.0153 328.071 15.2125C328.071 15.4696 328.071 15.7107 328.071 15.9356C327.983 16.3213 327.924 16.6185 327.895 16.8114L323.977 35.2989C323.096 39.3642 321.82 42.0799 320.147 43.4538C318.591 44.7313 316.009 45.3742 312.399 45.3742H303.199C301.731 45.3742 300.601 45.0848 299.809 44.5064C299.017 43.9278 298.62 42.9798 298.62 41.6622C298.62 41.0836 298.708 40.4248 298.884 39.6856L299.809 35.6363H300.821C300.968 36.3433 301.24 36.8574 301.636 37.1789C302.032 37.5003 302.7 37.6608 303.639 37.6608H308.965C310.227 37.6608 311.174 37.3796 311.805 36.8172C312.436 36.2548 312.869 35.3471 313.103 34.0937L313.412 32.551H312.707C312.062 33.7722 311.343 34.5597 310.55 34.9132C309.963 35.1704 308.892 35.2989 307.337 35.2989H305.136C302.054 35.2989 300.513 33.483 300.513 29.8434C300.513 28.2927 300.748 26.4929 301.218 24.4282L302.098 20.4672C302.802 17.1809 304.152 14.7867 306.148 13.2682C307.791 12.0148 309.758 11.3882 312.047 11.3882V11.3882ZM314.424 27.8669L316.581 17.655H315.437H315.04C314.688 17.655 314.373 17.7755 314.094 18.0165C313.815 18.2577 313.617 18.6353 313.5 19.1575L311.783 27.433C311.724 27.6259 311.695 27.9311 311.695 28.357C311.695 28.9997 312.032 29.3211 312.707 29.3211H312.883C313.323 29.3211 313.668 29.1926 313.918 28.9354C314.167 28.6784 314.336 28.3168 314.424 27.8669V27.8669Z" fill="#0000FF"/>
<path fill-rule="evenodd" clip-rule="evenodd" d="M183.534 27.0347V24.0783V23.8459C183.534 23.3032 183.974 22.8633 184.516 22.8633V22.8633H194.848V22.8633C195.391 22.8633 195.831 23.3032 195.831 23.8459V24.0783V27.0347V27.2672C195.831 27.8099 195.391 28.2498 194.848 28.2498V28.2498H184.516V28.2498C183.974 28.2498 183.534 27.8099 183.534 27.2672V27.0347ZM185.994 27.0347C185.178 27.0347 184.516 26.3729 184.516 25.5565V25.5565C184.516 24.7402 185.178 24.0783 185.994 24.0783H193.37C194.186 24.0783 194.848 24.7402 194.848 25.5565V25.5565C194.848 26.3729 194.186 27.0347 193.37 27.0347H185.994Z" fill="#FEFEFE"/>
<path d="M184.54 27.1117V24.1553H194.872V27.1117H184.54Z" fill="#0000FF"/>
</svg>
