<svg width="50" height="50" viewBox="0 0 50 50" fill="none" xmlns="http://www.w3.org/2000/svg">
<g clip-path="url(#clip0_266_6399)">
<path d="M25 50C11.195 50 0 38.805 0 25C0 11.195 11.195 0 25 0C38.805 0 50 11.195 50 25C50 38.805 38.805 50 25 50Z" fill="#25D366"/>
<path fill-rule="evenodd" clip-rule="evenodd" d="M36.94 13.57C33.84 10.465 29.71 8.755 25.315 8.75C16.26 8.75 8.885 16.12 8.885 25.18C8.885 28.075 9.64 30.905 11.08 33.395L8.75 41.91L17.46 39.625C19.86 40.935 22.56 41.625 25.31 41.625H25.315C34.37 41.625 41.74 34.255 41.745 25.195C41.75 20.805 40.045 16.675 36.94 13.57ZM25.32 38.85H25.315C22.865 38.85 20.46 38.19 18.365 36.945L17.865 36.65L12.695 38.005L14.075 32.965L13.75 32.45C12.385 30.275 11.66 27.765 11.66 25.18C11.665 17.65 17.79 11.525 25.325 11.525C28.975 11.525 32.4 12.95 34.98 15.53C37.56 18.11 38.98 21.545 38.975 25.19C38.975 32.725 32.845 38.85 25.32 38.85ZM32.81 28.62C32.4 28.415 30.38 27.42 30.005 27.285C29.63 27.15 29.355 27.08 29.08 27.49C28.805 27.9 28.02 28.825 27.78 29.1C27.54 29.375 27.3 29.41 26.89 29.205C26.48 29 25.155 28.565 23.59 27.165C22.37 26.075 21.545 24.73 21.305 24.32C21.065 23.91 21.28 23.685 21.485 23.48C21.67 23.295 21.895 23 22.1 22.76C22.305 22.52 22.375 22.35 22.51 22.075C22.645 21.8 22.58 21.56 22.475 21.355C22.37 21.15 21.55 19.13 21.21 18.305C20.875 17.505 20.54 17.615 20.285 17.6C20.045 17.59 19.77 17.585 19.5 17.585C19.225 17.585 18.78 17.69 18.405 18.1C18.03 18.51 16.97 19.505 16.97 21.525C16.97 23.545 18.44 25.5 18.645 25.77C18.85 26.045 21.54 30.19 25.66 31.97C26.64 32.395 27.405 32.645 28 32.835C28.985 33.15 29.88 33.105 30.585 33C31.375 32.88 33.015 32.005 33.355 31.05C33.695 30.09 33.695 29.27 33.595 29.1C33.495 28.93 33.22 28.83 32.81 28.62Z" fill="white"/>
</g>
<defs>
<clipPath id="clip0_266_6399">
<rect width="50" height="50" fill="white"/>
</clipPath>
</defs>
</svg>
