<svg width="67" height="31" viewBox="0 0 67 31" fill="none" xmlns="http://www.w3.org/2000/svg">
<path d="M7.73368 18.4824V17.9366C7.73368 17.3819 7.176 16.9364 6.4943 16.9364C5.8126 16.9364 5.26534 17.3871 5.26534 17.9419V23.2426V30.0524H0.0615234V15.7077L20.6487 5.99121V30.0524H15.3945V14.3546C15.3945 13.7991 14.8369 13.3558 14.1552 13.3558C13.4735 13.3558 12.9288 13.8051 12.9288 14.3599L12.9271 30.0524H7.73368V18.4824Z" fill="black"/>
<path d="M38.7769 2.46118L51.723 8.61291V16.0189H46.4897V10.814C46.4897 10.2592 45.9442 9.8137 45.2625 9.8137C44.5808 9.8137 44.0345 10.1559 44.0345 10.7099V26.1921C44.0345 26.7477 44.5826 27.1924 45.2634 27.1924C45.9451 27.1924 46.4924 26.7424 46.4924 26.1884L46.4897 21.6249H51.723L51.7213 30.0523H38.7759L38.7769 2.46118Z" fill="black"/>
<path fill-rule="evenodd" clip-rule="evenodd" d="M30.8723 26.3391V16.2541C30.8723 15.6993 30.2773 15.2553 29.5956 15.2553C28.9139 15.2553 28.3589 15.7031 28.3589 16.2586L28.3571 26.3037C28.3571 26.8585 28.9139 27.3432 29.5956 27.3432C30.2773 27.3432 30.8723 26.8939 30.8723 26.3391ZM23.2062 14.6689L30.8671 11.0175V7.0691C30.8134 6.55652 30.2436 6.17058 29.5974 6.17058C28.9157 6.17058 28.3684 6.62058 28.3684 7.17613L28.3693 9.23098L23.2036 11.6183V4.88611L33.6217 0L36.0952 1.16235L36.0969 30.0523H23.2045L23.2062 14.6689Z" fill="black"/>
<path fill-rule="evenodd" clip-rule="evenodd" d="M61.9586 26.4951V18.0654C61.9586 17.5099 61.3507 17.0659 60.6699 17.0659C59.9882 17.0659 59.4696 17.5099 59.4696 18.0654L59.4678 26.4951C59.4678 27.0499 59.9864 27.4939 60.6681 27.4939C61.3498 27.4939 61.9586 27.0499 61.9586 26.4951ZM54.3394 9.81287L67.0004 15.7566V30.0523H54.3403L54.3394 9.81287Z" fill="black"/>
</svg>
