<svg width="67" height="63" viewBox="0 0 67 63" fill="none" xmlns="http://www.w3.org/2000/svg">
<path d="M0 31.3375L66.9783 31.3383V39.37H0V31.3375Z" fill="#06C2BC"/>
<path d="M0.000732422 39.3595V47.2962L33.4343 63L66.9773 47.2721V39.3466L0.000732422 39.3595Z" fill="black"/>
<path d="M7.7338 18.4823V17.9365C7.7338 17.3818 7.17612 16.9363 6.49442 16.9363C5.81272 16.9363 5.26546 17.387 5.26546 17.9418V23.2425V30.0523H0.0616455V15.7076L20.6488 5.99115V30.0523H15.3946V14.3545C15.3946 13.799 14.837 13.3557 14.1553 13.3557C13.4736 13.3557 12.9289 13.805 12.9289 14.3598L12.9272 30.0523H7.7338V18.4823Z" fill="black"/>
<path d="M38.7771 2.46115L51.7232 8.61288V16.0189H46.4899V10.814C46.4899 10.2592 45.9444 9.81367 45.2627 9.81367C44.581 9.81367 44.0347 10.1559 44.0347 10.7099V26.1921C44.0347 26.7477 44.5828 27.1924 45.2636 27.1924C45.9453 27.1924 46.4926 26.7424 46.4926 26.1884L46.4899 21.6249H51.7232L51.7215 30.0523H38.7761L38.7771 2.46115Z" fill="black"/>
<path fill-rule="evenodd" clip-rule="evenodd" d="M30.8723 26.3391V16.2541C30.8723 15.6993 30.2773 15.2553 29.5956 15.2553C28.9139 15.2553 28.3589 15.7031 28.3589 16.2586L28.3571 26.3037C28.3571 26.8585 28.9139 27.3432 29.5956 27.3432C30.2773 27.3432 30.8723 26.8939 30.8723 26.3391ZM23.2062 14.6689L30.8671 11.0175V7.0691C30.8134 6.55652 30.2436 6.17058 29.5974 6.17058C28.9157 6.17058 28.3684 6.62058 28.3684 7.17613L28.3693 9.23098L23.2036 11.6183V4.88611L33.6217 0L36.0952 1.16235L36.0969 30.0523H23.2045L23.2062 14.6689Z" fill="black"/>
<path fill-rule="evenodd" clip-rule="evenodd" d="M61.9584 26.4951V18.0654C61.9584 17.5099 61.3505 17.0659 60.6697 17.0659C59.988 17.0659 59.4694 17.5099 59.4694 18.0654L59.4676 26.4951C59.4676 27.0499 59.9862 27.4939 60.6679 27.4939C61.3496 27.4939 61.9584 27.0499 61.9584 26.4951ZM54.3392 9.8129L67.0002 15.7566V30.0523H54.3401L54.3392 9.8129Z" fill="black"/>
</svg>
