<svg version="1.0" xmlns="http://www.w3.org/2000/svg" width="360.000000pt" height="115.000000pt" viewBox="0 0 360.000000 115.000000" preserveAspectRatio="xMidYMid meet">

<g transform="translate(0.000000,115.000000) scale(0.100000,-0.100000)" fill="#000000" stroke="none">
<path fill="#cb0022" d="M206 805 c-32 -13 -70 -34 -83 -47 -22 -20 -63 -87 -63 -103 0 -3 74
-5 165 -5 91 0 165 -4 165 -9 0 -5 -18 -16 -40 -25 -30 -12 -75 -16 -175 -16
l-135 0 -10 -26 c-6 -14 -10 -28 -10 -32 0 -4 78 -5 172 -2 161 5 176 7 218
30 43 24 92 84 104 125 6 19 1 20 -160 18 -122 -1 -164 2 -161 10 7 22 92 36
216 35 120 0 124 0 137 23 27 48 24 49 -133 49 -133 0 -154 -3 -207 -25z"></path>
<path fill="#cb0022" d="M725 812 c-69 -24 -110 -55 -140 -106 -21 -37 -65 -147 -65 -165 0
-3 98 -5 217 -4 l218 2 13 31 12 30 -165 0 c-187 0 -182 -2 -144 78 36 73 59
81 227 81 l145 0 14 31 c7 18 13 34 13 36 0 2 -66 4 -147 4 -114 -1 -160 -5
-198 -18z"></path>
<path fill="#cb0022" d="M1167 820 l-38 -5 -53 -137 -53 -136 40 -4 c32 -3 40 0 47 17 4 11
15 37 23 58 l16 37 135 0 c76 0 136 -4 136 -9 0 -5 -9 -30 -20 -56 l-20 -46
42 3 42 3 52 138 52 138 -40 -3 c-37 -3 -42 -7 -57 -43 -27 -67 -21 -65 -162
-65 -144 0 -141 -2 -113 70 9 23 15 42 13 43 -2 2 -21 0 -42 -3z"></path>
<path fill="#cb0022" d="M2640 810 c-4 -8 -29 -69 -55 -135 -26 -66 -49 -126 -52 -133 -4 -10
5 -13 38 -10 l43 3 44 113 44 112 134 0 c146 0 153 -3 113 -54 -20 -25 -24
-26 -124 -26 l-104 0 -16 -30 c-8 -16 -15 -31 -15 -35 0 -3 24 -5 53 -5 50 0
53 -1 75 -40 21 -37 26 -40 67 -40 25 0 45 2 45 5 0 2 -9 19 -20 37 l-20 33
49 21 c53 24 89 65 116 134 9 25 19 50 21 55 3 6 -72 10 -212 10 -182 0 -217
-2 -224 -15z"></path>
<path fill="#cb0022" d="M3090 687 c-27 -75 -50 -142 -50 -147 0 -6 17 -10 39 -10 l39 0 33
95 c18 52 36 95 41 95 23 0 87 -34 116 -63 19 -18 45 -53 58 -79 23 -45 25
-47 65 -45 l42 2 53 138 c30 76 54 142 54 145 0 4 -18 7 -40 7 l-40 0 -29 -80
c-26 -72 -51 -108 -51 -73 0 26 -72 98 -122 124 -32 16 -69 26 -104 27 l-53 2
-51 -138z"></path>
<path fill="#cb0022" d="M1692 794 c-46 -23 -102 -81 -102 -106 0 -5 17 -8 38 -8 30 0 44 7
71 35 29 31 75 54 86 43 2 -2 -16 -52 -40 -111 l-44 -107 34 0 c19 0 38 -1 42
-2 4 -2 27 47 50 107 l41 110 90 3 c84 3 90 4 101 28 6 14 11 27 11 29 0 3
-73 5 -163 5 -156 0 -165 -1 -215 -26z"></path>
<path fill="#cb0022" d="M2205 806 c-60 -26 -148 -153 -170 -246 l-6 -25 218 2 218 2 13 31
12 30 -170 0 c-93 0 -170 3 -170 6 0 3 5 14 10 25 10 18 23 19 179 19 l169 0
10 30 11 30 -172 2 -172 3 35 22 c32 21 47 23 183 23 l147 0 10 26 c6 14 10
27 10 30 0 2 -75 4 -167 4 -116 -1 -177 -5 -198 -14z"></path>
<path class="line_logo" d="M3037 484 c-1 -1 -396 -4 -877 -8 -1237 -9 -2154 -18 -2159 -22 -23
-20 59 -24 592 -24 320 -1 623 -3 672 -5 50 -1 595 -6 1213 -10 l1122 -8 0 43
0 42 -281 -3 c-154 -2 -281 -5 -282 -5z"></path>
</g>
</svg>