<svg width="40" height="41" viewBox="0 0 40 41" fill="none" xmlns="http://www.w3.org/2000/svg">
<g clip-path="url(#clip0_66_977)">
<path d="M20 40.2867C31.0457 40.2867 40 31.2999 40 20.2141C40 9.12838 31.0457 0.141602 20 0.141602C8.9543 0.141602 0 9.12838 0 20.2141C0 31.2999 8.9543 40.2867 20 40.2867Z" fill="#4D76A1"/>
<path fill-rule="evenodd" clip-rule="evenodd" d="M19.2422 29.0194H20.8125C20.8125 29.0194 21.2891 28.9646 21.5313 28.7058C21.7578 28.4627 21.75 28.0158 21.75 28.0158C21.75 28.0158 21.7188 25.8988 22.6953 25.593C23.6563 25.2872 24.8985 27.6316 26.211 28.5412C27.2031 29.2233 27.9531 29.0743 27.9531 29.0743L31.461 29.0273C31.461 29.0273 33.2969 28.9175 32.4219 27.467C32.3516 27.3493 31.9141 26.3928 29.8125 24.4404C27.6172 22.3939 27.9063 22.7233 30.5547 19.1792C32.1719 17.023 32.8125 15.7057 32.6094 15.1412C32.4141 14.6002 31.2344 14.7491 31.2344 14.7491L27.2813 14.7727C27.2813 14.7727 26.9922 14.7334 26.7735 14.8589C26.5625 14.9844 26.4219 15.2823 26.4219 15.2823C26.4219 15.2823 25.7969 16.9524 24.961 18.3716C23.2031 21.3668 22.5 21.5236 22.211 21.3433C21.5391 20.9042 21.711 19.6026 21.711 18.6695C21.711 15.7684 22.1485 14.5531 20.8594 14.2395C20.4297 14.1375 20.1172 14.067 19.0156 14.0591C17.6094 14.0435 16.4141 14.0591 15.7344 14.3963C15.2891 14.6158 14.9375 15.1098 15.1485 15.1333C15.4063 15.1647 16 15.298 16.3125 15.7214C16.7188 16.2703 16.7031 17.5169 16.7031 17.5169C16.7031 17.5169 16.9375 20.9355 16.1563 21.359C15.625 21.6491 14.8906 21.0532 13.3281 18.3402C12.5235 16.9446 11.9219 15.4078 11.9219 15.4078C11.9219 15.4078 11.8047 15.1176 11.5938 14.9687C11.336 14.7805 10.9844 14.7256 10.9844 14.7256L7.23439 14.7491C7.23439 14.7491 6.67189 14.7648 6.46095 15.0079C6.28127 15.2274 6.44533 15.6822 6.44533 15.6822C6.44533 15.6822 9.38283 22.5821 12.711 26.0556C15.7813 29.2311 19.2422 29.0194 19.2422 29.0194Z" fill="white"/>
</g>
<defs>
<clipPath id="clip0_66_977">
<rect width="40" height="40.1451" fill="white" transform="translate(0 0.141602)"/>
</clipPath>
</defs>
</svg>
